<svg xmlns="http://www.w3.org/2000/svg" width="766.824" height="773.008" viewBox="0 0 766.824 773.008">
  <g id="Tablet_login-pana" data-name="Tablet login-pana" transform="translate(-11.42 -13.29)">
    <g id="freepik--background-complete--inject-101" transform="translate(11.42 13.29)">
      <ellipse id="Ellipse_36" data-name="Ellipse 36" cx="154.566" cy="28.192" rx="154.566" ry="28.192" transform="translate(265.952 701.038)" fill="#f5f5f5"/>
      <path id="Path_2429" data-name="Path 2429" d="M442.383,468.564a4.256,4.256,0,0,0-.341-1.267,7.388,7.388,0,0,0-2.712-2.7,48.945,48.945,0,0,0-13.966-5.148c-12.618-3.134-31.326-5.668-54.532-7.243a807.915,807.915,0,0,0-81.652-1.186c-15.362.552-31.488,1.527-48.1,3.427-8.315.958-16.743,2.144-25.187,3.881a113.561,113.561,0,0,0-12.569,3.248,37.714,37.714,0,0,0-6.009,2.55,12.992,12.992,0,0,0-2.615,1.819,3.8,3.8,0,0,0-1.38,2.549,3.719,3.719,0,0,0,1.364,2.566A12.989,12.989,0,0,0,197.3,472.9a38.09,38.09,0,0,0,5.992,2.533,111.353,111.353,0,0,0,12.586,3.248c8.444,1.738,16.889,2.923,25.187,3.9,16.629,1.884,32.755,2.858,48.117,3.41a808.256,808.256,0,0,0,81.668-1.185c23.19-1.624,41.9-4.109,54.532-7.227a49.436,49.436,0,0,0,13.95-5.164,7.275,7.275,0,0,0,2.712-2.7,4.124,4.124,0,0,0,.341-1.267,2.615,2.615,0,0,1-.26,1.3,7.209,7.209,0,0,1-2.7,2.793,47.273,47.273,0,0,1-13.966,5.343c-12.634,3.248-31.358,5.862-54.581,7.519a800.054,800.054,0,0,1-81.733,1.364c-15.379-.52-31.521-1.478-48.182-3.378-8.315-.958-16.775-2.144-25.268-3.9a106.936,106.936,0,0,1-12.667-3.248,37.7,37.7,0,0,1-6.138-2.615,13.089,13.089,0,0,1-2.793-1.949,3.9,3.9,0,0,1,0-6.35,15.427,15.427,0,0,1,2.793-1.949,37.611,37.611,0,0,1,6.138-2.6,106.912,106.912,0,0,1,12.667-3.248c8.493-1.754,16.938-2.939,25.268-3.9,16.645-1.884,32.787-2.842,48.166-3.378a800.088,800.088,0,0,1,81.733,1.364c23.206,1.624,41.93,4.287,54.564,7.519a48.524,48.524,0,0,1,13.982,5.343,7.21,7.21,0,0,1,2.7,2.793,2.615,2.615,0,0,1,.276,1.283Z" transform="translate(101.539 259.058)" fill="#ebebeb"/>
      <path id="Path_2430" data-name="Path 2430" d="M379.832,465.058a3.251,3.251,0,0,0-.244-.78,4.271,4.271,0,0,0-1.705-1.624,31.1,31.1,0,0,0-8.834-3.248,215.772,215.772,0,0,0-34.525-4.547c-14.615-.958-32.235-1.38-51.69-.7-9.744.341-19.926.958-30.433,2.16-5.262.617-10.6,1.364-15.931,2.468a74.083,74.083,0,0,0-7.941,2.079,23.645,23.645,0,0,0-3.784,1.624c-1.137.617-2.387,1.526-2.452,2.631s1.3,2.014,2.452,2.647a22.735,22.735,0,0,0,3.768,1.624,67.976,67.976,0,0,0,7.941,2.079c5.343,1.12,10.686,1.867,15.931,2.485,10.523,1.2,20.721,1.8,30.449,2.16,19.487.682,37.01.26,51.69-.7a215.489,215.489,0,0,0,34.525-4.547,31.1,31.1,0,0,0,8.834-3.248A4.27,4.27,0,0,0,379.589,466a3.041,3.041,0,0,0,.243-.8,2.013,2.013,0,0,1-.162.828,4.336,4.336,0,0,1-1.624,1.8,30.547,30.547,0,0,1-8.851,3.41,207.71,207.71,0,0,1-34.557,4.872,497.557,497.557,0,0,1-51.755.893c-9.744-.325-19.975-.926-30.53-2.127-5.262-.6-10.621-1.348-16.012-2.468a72.29,72.29,0,0,1-8.038-2.095,24.878,24.878,0,0,1-3.914-1.624,9.982,9.982,0,0,1-1.8-1.25,2.615,2.615,0,0,1,0-4.238,10.35,10.35,0,0,1,1.8-1.267,25.693,25.693,0,0,1,3.914-1.624,68.9,68.9,0,0,1,8.12-2.095c5.375-1.12,10.734-1.867,16.012-2.468,10.539-1.2,20.77-1.8,30.514-2.127a497.744,497.744,0,0,1,51.755.893,207.724,207.724,0,0,1,34.557,4.872,30.742,30.742,0,0,1,8.85,3.41,4.335,4.335,0,0,1,1.624,1.8A2,2,0,0,1,379.832,465.058Z" transform="translate(119.659 261.265)" fill="#ebebeb"/>
      <path id="Path_2431" data-name="Path 2431" d="M327.464,462.924a1.835,1.835,0,0,0-.991-1.2,15.912,15.912,0,0,0-4.417-1.624,111.149,111.149,0,0,0-17.181-2.16c-7.324-.455-16.11-.65-25.821-.309-4.872.195-9.955.5-15.2,1.1-2.631.309-5.294.682-7.957,1.234a34.462,34.462,0,0,0-3.946,1.039,10.227,10.227,0,0,0-1.835.78c-.568.292-1.121.763-1.137,1.137s.552.828,1.121,1.137a13.46,13.46,0,0,0,1.851.779,36.134,36.134,0,0,0,3.946,1.039c2.663.552,5.326.926,7.957,1.234,5.245.6,10.344.909,15.2,1.088,9.744.357,18.5.162,25.837-.309a111.537,111.537,0,0,0,17.246-2.192,16.466,16.466,0,0,0,4.417-1.624,1.867,1.867,0,0,0,.991-1.2.666.666,0,0,1,0,.422,2.144,2.144,0,0,1-.844.926,14.47,14.47,0,0,1-4.417,1.738,101,101,0,0,1-17.409,2.566,250.487,250.487,0,0,1-25.983.487c-4.872-.162-9.987-.455-15.265-1.055-2.647-.292-5.327-.666-8.022-1.234a33.157,33.157,0,0,1-4.06-1.056,11.008,11.008,0,0,1-1.981-.844,2.549,2.549,0,0,1-1.624-1.884c.13-1.088.974-1.494,1.624-1.867a14.137,14.137,0,0,1,2-.844,40.014,40.014,0,0,1,4.044-1.056c2.7-.552,5.375-.926,8.022-1.234,5.278-.6,10.393-.893,15.265-1.056a245.6,245.6,0,0,1,25.983.5,102.919,102.919,0,0,1,17.295,2.468,14.842,14.842,0,0,1,4.417,1.754,2.046,2.046,0,0,1,.844.926.667.667,0,0,1,.033.39Z" transform="translate(136.154 263.398)" fill="#ebebeb"/>
      <rect id="Rectangle_269" data-name="Rectangle 269" width="49.043" height="19.39" transform="translate(31.31 188.507)" fill="#f5f5f5"/>
      <path id="Path_2432" data-name="Path 2432" d="M72.188,160.663a1.17,1.17,0,0,1,0-.341V155.5c0-3.345,0-8.12-.114-14.226l.195.227-60.508.146.309-.374h0V160.63l-.309-.357,43.116.162,12.7.114h.13l-12.65.114-43.327.162H11.42v-19.52h0c.617-.747.179-.195.309-.374l60.508.146h.211v.227c0,6.122-.081,10.994-.1,14.372v4.709a1.853,1.853,0,0,1-.162.276Z" transform="translate(-11.42 66.331)" fill="#e0e0e0"/>
      <rect id="Rectangle_270" data-name="Rectangle 270" width="79.005" height="20.9" transform="translate(458.324 614.368)" fill="#ebebeb"/>
      <path id="Path_2433" data-name="Path 2433" d="M352.222,426.18v-5.57c0-3.605,0-8.8-.13-15.346l.244.26-79,.146.406-.406h0v20.9l-.39-.406,56.3.179,16.515.244h5.684a1.172,1.172,0,0,1,.406,0h-5.895l-16.532.114-56.578.179h-.39V405.28h0l.406-.39,79,.146h.244v.244c0,6.609-.1,11.839-.13,15.492v5.083a1.385,1.385,0,0,1-.162.325Z" transform="translate(151.702 231.044)" fill="#e0e0e0"/>
      <rect id="Rectangle_271" data-name="Rectangle 271" width="79.005" height="20.9" transform="translate(311.699 195.847)" fill="#f5f5f5"/>
      <path id="Path_2434" data-name="Path 2434" d="M261.9,168.5v-5.57c0-3.605,0-8.786-.146-15.33l.244.244-78.988.162c.162-.179-.406.39.39-.406h0v20.916l-.39-.39,56.3.179,16.629.114h.179l-16.532.114-56.578.179h-.39V147.651h0c.812-.812.227-.227.422-.406l78.988.162h.26v.244c0,6.593-.114,11.839-.146,15.476v5.083A.275.275,0,0,1,261.9,168.5Z" transform="translate(95.398 70.265)" fill="#e0e0e0"/>
      <path id="Path_2435" data-name="Path 2435" d="M377.181,54.5a2.193,2.193,0,0,1,0-.39v-5.18c0-3.605,0-8.8-.146-15.346l.244.26-78.988.146.39-.39h0V54.566l-.39-.406,56.3.179,16.629.114h.179l-16.532.114-56.578.179h-.39V33.6h0c.812-.812.227-.227.422-.406l78.988.146h.26v.244c0,6.609-.114,11.855-.146,15.492V54.16a2.7,2.7,0,0,1-.244.341Z" transform="translate(167.326 -0.895)" fill="#e0e0e0"/>
      <rect id="Rectangle_272" data-name="Rectangle 272" width="79.005" height="20.9" transform="translate(682.022 293.559)" fill="#f5f5f5"/>
      <path id="Path_2436" data-name="Path 2436" d="M497.5,228.751a3.344,3.344,0,0,1,0-.373v-5.2c0-3.605-.081-8.785-.146-15.33l.244.244-79,.162.406-.406h0v20.868l-.39-.39,56.3.179,16.629.114h.065l-16.532.114-56.578.179h-.39V207.656h0l.406-.406,79,.162h.244v.244c0,6.609-.1,11.839-.13,15.476v5.1A1.154,1.154,0,0,1,497.5,228.751Z" transform="translate(242.33 107.729)" fill="#e0e0e0"/>
      <rect id="Rectangle_273" data-name="Rectangle 273" width="147.405" height="244.013" transform="translate(113.075 76.195)" fill="#e0e0e0"/>
      <rect id="Rectangle_274" data-name="Rectangle 274" width="147.405" height="244.013" transform="translate(108.171 76.195)" fill="#ebebeb"/>
      <rect id="Rectangle_275" data-name="Rectangle 275" width="134.852" height="234.107" transform="translate(114.455 81.148)" fill="#fff"/>
      <rect id="Rectangle_276" data-name="Rectangle 276" width="82.918" height="173.274" transform="translate(140.13 111.565)" fill="#ebebeb"/>
      <path id="Path_2437" data-name="Path 2437" d="M97.711,175.488c-.195-16.239,14.356-31.975,30.384-34.233,7.649-1.088,15.768.438,22.9-2.5,12.748-5.229,16.808-22.151,29.637-27.185l.585,125.238h-83.5Z" transform="translate(42.419 48.031)" fill="#e0e0e0"/>
      <path id="Path_2438" data-name="Path 2438" d="M177.708,47.578a2.193,2.193,0,0,1,0-.39v-5.18c0-3.605,0-8.8-.13-15.33l.244.244-79,.146.39-.39h0v20.9l-.39-.406,56.3.179,16.613.114h.1l-16.515.114-56.578.179H98.33V26.711h0c.8-.812.227-.227.406-.406l79,.146h.244v.26c0,6.593-.1,11.839-.13,15.476V47.27a2.7,2.7,0,0,1-.146.309Z" transform="translate(42.806 -5.194)" fill="#e0e0e0"/>
      <path id="Path_2439" data-name="Path 2439" d="M172.141,34.775a1.25,1.25,0,0,1,0-.406v-1.1c0-1.039,0-2.436-.081-4.19,0-3.67-.081-8.85-.146-15.216l.276.292-47.468.114c-.357.357.487-.487.406-.39h0V34.742l-.39-.39,33.957.179,9.906.114h.162l-9.744.114-34.216.179h-.374V13.7h0l.406-.406L172.3,13.4h.146v.276c0,6.5-.114,11.676-.146,15.395V33.2A5.219,5.219,0,0,1,172.141,34.775Z" transform="translate(59.091 -13.29)" fill="#e0e0e0"/>
      <path id="Path_2440" data-name="Path 2440" d="M509.875,127.5a2.154,2.154,0,0,1,0-.422c0-.309,0-.7,0-1.185v-4.563c0-4.011-.1-9.744-.162-17.035l.276.276-87.693.179c.195-.211-.455.438.438-.455h0v23.19l-.438-.438,62.522.195,18.448.13h6.756a1.624,1.624,0,0,1-.406,0h-6.122l-18.35.13-62.814.195h-.438v-23.58h0c.893-.893.26-.244.455-.438l87.693.162h.276v.39c0,7.324-.114,13.154-.146,17.2v5.635A.483.483,0,0,1,509.875,127.5Z" transform="translate(244.688 43.077)" fill="#e0e0e0"/>
      <path id="Path_2441" data-name="Path 2441" d="M503.809,113.06a1.839,1.839,0,0,1,0-.438c0-.341,0-.747,0-1.234,0-1.137,0-2.7-.081-4.644,0-4.076-.1-9.825-.162-16.889l.309.325-52.778.146.438-.438h0v23.19l-.422-.422,37.708.195,10.978.13h4.027a6.911,6.911,0,0,1-.958,0h-2.874l-10.9.114-37.984.195h-.422V89.935h0l.455-.455,52.7.13h.325v.325c0,7.145-.13,12.992-.162,17.084,0,1.916,0,3.443-.081,4.579S503.825,113.141,503.809,113.06Z" transform="translate(262.657 34.248)" fill="#e0e0e0"/>
    </g>
    <g id="freepik--Floor--inject-101" transform="translate(48.836 697.699)">
      <path id="Path_2442" data-name="Path 2442" d="M737.755,435.162c0,.227-157.522.422-351.631.422s-351.664-.162-351.664-.422,157.425-.422,351.664-.422S737.755,434.951,737.755,435.162Z" transform="translate(-34.46 -434.74)" fill="#263238"/>
    </g>
    <g id="freepik--Device--inject-101" transform="translate(324.195 53.29)">
      <rect id="Rectangle_277" data-name="Rectangle 277" width="381.804" height="547.917" rx="10.49" transform="translate(0.206 0.404)" fill="#263238"/>
      <path id="Path_2443" data-name="Path 2443" d="M568.982,586.242l1.185-.081a9.312,9.312,0,0,0,1.461-.179,15.26,15.26,0,0,0,2.014-.438,17.1,17.1,0,0,0,10.393-8.526,18.174,18.174,0,0,0,1.624-4.531,27.1,27.1,0,0,0,.325-5.343v-43.18c0-46.315,0-113.318-.114-196.107V57.536a25.643,25.643,0,0,0-.276-5,15.994,15.994,0,0,0-1.624-4.693,16.792,16.792,0,0,0-6.869-7.08,18.92,18.92,0,0,0-4.726-1.705,24.927,24.927,0,0,0-5.067-.309h-345.9a16.613,16.613,0,0,0-16.4,13.56,29.7,29.7,0,0,0-.309,5.8v509.2a27.961,27.961,0,0,0,.195,4.385,17.05,17.05,0,0,0,1.169,4.157,16.743,16.743,0,0,0,12.992,9.938,28.659,28.659,0,0,0,4.271.179h77.787l196.091.13h0l-196.091.13H223.327a30.214,30.214,0,0,1-4.352-.179,17.262,17.262,0,0,1-14.729-14.615,27.6,27.6,0,0,1-.195-4.466V58.072a31.86,31.86,0,0,1,.309-5.944,17.441,17.441,0,0,1,17.165-14.193h345.9a26.712,26.712,0,0,1,5.2.341,18.188,18.188,0,0,1,4.872,1.77,17.652,17.652,0,0,1,7.178,7.373,16.956,16.956,0,0,1,1.624,4.872,27.186,27.186,0,0,1,.276,5.115V327.873c0,82.821-.081,149.792-.114,196.107v43.181a26.289,26.289,0,0,1-.325,5.375,18.235,18.235,0,0,1-1.624,4.563,17.231,17.231,0,0,1-5.262,6.025,16.628,16.628,0,0,1-5.245,2.5,13.435,13.435,0,0,1-2.014.438,11.535,11.535,0,0,1-1.478.146Z" transform="translate(-204.023 -37.922)" fill="#263238"/>
      <circle id="Ellipse_37" data-name="Ellipse 37" cx="14.648" cy="14.648" r="14.648" transform="translate(170.391 520.777) rotate(-45)" fill="#455a64"/>
      <path id="Path_2444" data-name="Path 2444" d="M377.823,60.18H299.874a5.424,5.424,0,0,1-5.424-5.44h0a5.424,5.424,0,0,1,5.424-5.44h77.949a5.44,5.44,0,0,1,5.44,5.44h0A5.44,5.44,0,0,1,377.823,60.18Z" transform="translate(-147.602 -30.822)" fill="#455a64"/>
      <rect id="Rectangle_278" data-name="Rectangle 278" width="357.721" height="457.577" transform="translate(11.915 39.492)" fill="#fff"/>
      <rect id="Rectangle_279" data-name="Rectangle 279" width="241.674" height="41.751" rx="1.45" transform="translate(69.987 255.67)" fill="#f5f5f5"/>
      <path id="Path_2445" data-name="Path 2445" d="M486.574,237.392a2.761,2.761,0,0,0,1.348-.471,2.322,2.322,0,0,0,.909-1.445,24.039,24.039,0,0,0,0-2.452c0-3.768,0-9.289-.081-16.4V198a2.144,2.144,0,0,0-2.046-2.111H448.638L249.674,196a1.949,1.949,0,0,0-1.949,1.868v37.351a1.933,1.933,0,0,0,2.062,1.624h64.958l89.447.1,60.313.13,16.4.211H464.521l-60.313.146-89.447.081H249.82a2.809,2.809,0,0,1-1.884-.617,2.729,2.729,0,0,1-1.007-1.738,17.442,17.442,0,0,1,0-1.819V197.606a2.793,2.793,0,0,1,2.793-2.7l198.965.13h38.1a2.582,2.582,0,0,1,2.452,2.566c0,2.355,0,4.612,0,6.788v11.839c0,7.113,0,12.634-.081,16.4v2.485a2.533,2.533,0,0,1-.991,1.494,2.322,2.322,0,0,1-1.023.39,2.175,2.175,0,0,1-.568.39Z" transform="translate(-177.267 60.03)" fill="#263238"/>
      <rect id="Rectangle_280" data-name="Rectangle 280" width="241.674" height="41.751" rx="1.45" transform="translate(70.231 313.012)" fill="#f5f5f5"/>
      <path id="Path_2446" data-name="Path 2446" d="M486.746,272.708a2.728,2.728,0,0,0,1.332-.471,2.355,2.355,0,0,0,.909-1.445,23.641,23.641,0,0,0,0-2.452c0-3.768,0-9.289-.081-16.4V233.312a2.176,2.176,0,0,0-2.046-2.127H448.778l-198.965.13a1.949,1.949,0,0,0-1.949,1.868v37.351a2.046,2.046,0,0,0,.715,1.218,1.965,1.965,0,0,0,1.364.422h64.941l89.446.081,60.3.146,16.4.081h0l-16.4.081-60.3.13-89.447.1H249.927a2.842,2.842,0,0,1-1.9-.617,2.81,2.81,0,0,1-1.007-1.738c0-.715,0-1.2,0-1.819V232.889a2.809,2.809,0,0,1,2.793-2.68l198.965.13h38.1a2.615,2.615,0,0,1,2.468,2.582v18.627c0,7.113,0,12.634-.081,16.4a23.66,23.66,0,0,1,0,2.485,2.371,2.371,0,0,1-2.014,1.868A1.478,1.478,0,0,1,486.746,272.708Z" transform="translate(-177.195 82.055)" fill="#263238"/>
      <path id="Path_2447" data-name="Path 2447" d="M265.668,204.67v9.646h-1.137l-5.781-7.194v7.194h-1.38V204.67h1.137l5.781,7.194V204.67Z" transform="translate(-170.738 66.119)" fill="#263238"/>
      <path id="Path_2448" data-name="Path 2448" d="M270.15,209.033v4.417H268.9v-.991a2.728,2.728,0,0,1-2.4,1.056c-1.624,0-2.7-.893-2.7-2.16s.747-2.127,2.939-2.127h2.079v-.26c0-1.121-.633-1.77-1.949-1.77a3.768,3.768,0,0,0-2.322.78l-.536-.991a4.872,4.872,0,0,1,3-.926C269,206.077,270.15,207.035,270.15,209.033Zm-1.332,2.176v-1.023h-2.03c-1.315,0-1.624.52-1.624,1.137s.617,1.185,1.624,1.185a2.1,2.1,0,0,0,2.03-1.3Z" transform="translate(-166.726 66.986)" fill="#263238"/>
      <path id="Path_2449" data-name="Path 2449" d="M281.351,209.22v4.206h-1.332v-4.06c0-1.429-.682-2.127-1.884-2.127a2.111,2.111,0,0,0-2.192,2.42v3.768h-1.315v-4.06c0-1.429-.7-2.127-1.884-2.127a2.181,2.181,0,0,0-2.192,2.42v3.768H269.22v-7.308h1.267v1.088a2.971,2.971,0,0,1,2.533-1.153,2.712,2.712,0,0,1,2.533,1.348,3.248,3.248,0,0,1,2.81-1.348,2.793,2.793,0,0,1,2.988,3.167Z" transform="translate(-163.344 66.977)" fill="#263238"/>
      <path id="Path_2450" data-name="Path 2450" d="M285.06,210.228h-5.927a2.468,2.468,0,0,0,2.647,2.127,2.728,2.728,0,0,0,2.111-.877l.731.861a3.719,3.719,0,0,1-2.891,1.185,3.654,3.654,0,0,1-3.93-3.735,3.573,3.573,0,0,1,3.67-3.719,3.8,3.8,0,0,1,3.589,4.157Zm-5.927-.958h4.677a2.355,2.355,0,0,0-4.677,0Z" transform="translate(-157.992 66.992)" fill="#263238"/>
      <rect id="Rectangle_281" data-name="Rectangle 281" width="241.674" height="41.751" rx="20" transform="translate(70.604 377.677)" fill="#6255a5"/>
      <path id="Path_2451" data-name="Path 2451" d="M308.48,280.56h2.728v7.5h4.612v2.16h-7.34Z" transform="translate(-138.848 113.47)" fill="#fff"/>
      <path id="Path_2452" data-name="Path 2452" d="M313.276,285.966a4.239,4.239,0,1,1,4.222,3.881,3.9,3.9,0,0,1-4.222-3.881Zm5.8,0a1.624,1.624,0,1,0-.408,1.266A1.624,1.624,0,0,0,319.073,285.966Z" transform="translate(-135.865 113.975)" fill="#fff"/>
      <path id="Path_2453" data-name="Path 2453" d="M327.414,281.963v6.106c0,2.826-1.624,4.174-4.385,4.174a6.593,6.593,0,0,1-3.719-.991l.958-1.835a4.287,4.287,0,0,0,2.533.812c1.4,0,2-.633,2-1.819v-.244a2.777,2.777,0,0,1-2.225.877,3.605,3.605,0,1,1,0-7.21,2.712,2.712,0,0,1,2.355,1.039v-.909Zm-2.582,3.475a1.624,1.624,0,1,0-1.624,1.527,1.527,1.527,0,0,0,1.624-1.527Z" transform="translate(-132.303 114.259)" fill="#fff"/>
      <path id="Path_2454" data-name="Path 2454" d="M327.75,280.56h2.745v9.662H327.75Z" transform="translate(-126.825 113.47)" fill="#fff"/>
      <path id="Path_2455" data-name="Path 2455" d="M338.517,285.161v4.271H335.9v-3.849c0-1.072-.471-1.526-1.234-1.526s-1.494.52-1.494,1.77v3.605H330.56v-7.47h2.485v.812a3.248,3.248,0,0,1,2.387-.942,2.923,2.923,0,0,1,3.086,3.329Z" transform="translate(-125.072 114.26)" fill="#fff"/>
      <path id="Path_2456" data-name="Path 2456" d="M261.655,245.078a3.622,3.622,0,1,1-1.055-2.571,3.638,3.638,0,0,1,1.055,2.571Z" transform="translate(-172.603 89.061)" fill="#263238"/>
      <path id="Path_2457" data-name="Path 2457" d="M268.7,245.078a3.638,3.638,0,1,1-3.638-3.638,3.638,3.638,0,0,1,3.638,3.638Z" transform="translate(-168.211 89.061)" fill="#263238"/>
      <path id="Path_2458" data-name="Path 2458" d="M275.725,245.078a3.621,3.621,0,1,1-1.055-2.571A3.638,3.638,0,0,1,275.725,245.078Z" transform="translate(-163.824 89.061)" fill="#263238"/>
      <path id="Path_2459" data-name="Path 2459" d="M282.8,245.078a3.638,3.638,0,1,1-3.638-3.638A3.638,3.638,0,0,1,282.8,245.078Z" transform="translate(-159.413 89.061)" fill="#263238"/>
      <path id="Path_2460" data-name="Path 2460" d="M289.8,245.078a3.638,3.638,0,1,1-3.638-3.638A3.638,3.638,0,0,1,289.8,245.078Z" transform="translate(-155.046 89.061)" fill="#263238"/>
      <path id="Path_2461" data-name="Path 2461" d="M296.8,245.078a3.638,3.638,0,1,1-3.638-3.638A3.638,3.638,0,0,1,296.8,245.078Z" transform="translate(-150.678 89.061)" fill="#263238"/>
      <path id="Path_2462" data-name="Path 2462" d="M303.875,245.078a3.638,3.638,0,1,1-3.638-3.638A3.638,3.638,0,0,1,303.875,245.078Z" transform="translate(-146.261 89.061)" fill="#263238"/>
      <path id="Path_2463" data-name="Path 2463" d="M310.905,245.078a3.621,3.621,0,1,1-1.055-2.571A3.637,3.637,0,0,1,310.905,245.078Z" transform="translate(-141.874 89.061)" fill="#263238"/>
      <path id="Path_2464" data-name="Path 2464" d="M389.457,244.29h-.942v-1.332a4.5,4.5,0,0,0-9,0v1.332h-1.364a1.624,1.624,0,0,0-1.624,1.624v7.308a1.624,1.624,0,0,0,1.624,1.624h11.368a1.624,1.624,0,0,0,1.624-1.624v-7.308a1.624,1.624,0,0,0-1.689-1.624Zm-3.93,8.25h-3.362l.893-2.241A1.835,1.835,0,0,1,382,248.675a1.877,1.877,0,1,1,2.679,1.624Zm1.624-8.25h-6.268v-1.332a3.134,3.134,0,1,1,6.268,0Z" transform="translate(-96.389 87.202)" fill="#e0e0e0"/>
      <circle id="Ellipse_38" data-name="Ellipse 38" cx="72.233" cy="72.233" r="72.233" transform="translate(119.209 89.087)" fill="#fafafa"/>
      <path id="Path_2465" data-name="Path 2465" d="M422.052,165.163a10.621,10.621,0,0,0-.1-1.169c-.1-.779-.114-1.932-.211-3.427,0-.763-.1-1.624-.146-2.517s-.292-1.932-.455-3.021-.357-2.274-.552-3.524-.633-2.55-.942-3.93a69.146,69.146,0,0,0-7.974-19.179,71.452,71.452,0,0,0-18.3-20.413l-3.1-2.322c-1.088-.715-2.241-1.364-3.378-2.062a32.353,32.353,0,0,0-3.508-2.03l-3.735-1.786-1.9-.909-2.03-.715L371.677,96.7c-1.38-.455-2.809-.747-4.238-1.137a37.689,37.689,0,0,0-4.352-.991,66.583,66.583,0,0,0-9.078-1.056c-1.624,0-3.118-.195-4.693-.179l-4.758.244a11.651,11.651,0,0,0-2.387.162l-2.4.374c-1.624.26-3.248.438-4.872.779a78.16,78.16,0,0,0-18.951,6.934c-1.51.812-2.972,1.77-4.466,2.663-.731.471-1.527.877-2.225,1.413l-2.111,1.624a81.643,81.643,0,0,0-8.12,6.918c-1.2,1.348-2.42,2.68-3.638,4.027l-.926,1.007-.828,1.1-1.624,2.192-1.624,2.209-1.445,2.371-1.445,2.371-.715,1.2-.617,1.25q-1.218,2.517-2.436,5.067l-1.965,5.245a71.063,71.063,0,0,0,0,45.324l1.949,5.327c.828,1.624,1.624,3.378,2.452,5.067l.6,1.25.731,1.2,1.445,2.371,1.445,2.371,1.624,2.209,1.624,2.192.828,1.1.909,1.007,3.654,4.027a81.658,81.658,0,0,0,8.12,6.918l2.111,1.624c.7.52,1.494.926,2.225,1.4,1.494.893,2.956,1.851,4.466,2.68a79.019,79.019,0,0,0,18.951,6.918c1.624.341,3.248.52,4.872.8l2.4.357c.8.114,1.624.114,2.4.162l4.742.244c1.624,0,3.134-.13,4.693-.179A66.584,66.584,0,0,0,363.1,235.8a35.938,35.938,0,0,0,4.352-.991c1.413-.373,2.858-.666,4.222-1.121l4.044-1.478,2-.731,1.9-.893,3.735-1.8c1.25-.568,2.355-1.364,3.508-2.03s2.29-1.348,3.378-2.062l3.118-2.322a71.582,71.582,0,0,0,18.318-20.445,69.278,69.278,0,0,0,8.006-19.162c.325-1.4.779-2.679.942-3.946s.374-2.42.552-3.508.357-2.095.455-3.021.1-1.77.146-2.533c.1-1.478.162-2.631.211-3.427s.1-1.169.1-1.169v1.169c0,.763,0,1.949-.13,3.443q0,1.153-.1,2.533c-.081.926-.276,1.932-.422,3.037s-.325,2.274-.52,3.524a34.469,34.469,0,0,1-.909,3.979,68.2,68.2,0,0,1-7.909,19.325,71.7,71.7,0,0,1-18.334,20.64l-3.2,2.355c-1.088.731-2.257,1.4-3.394,2.095a38.034,38.034,0,0,1-3.54,2.062l-3.751,1.819-1.916.909-2.014.747-4.076,1.494c-1.38.471-2.842.763-4.271,1.169a39.064,39.064,0,0,1-4.385,1.007,68.074,68.074,0,0,1-9.175,1.072c-1.624,0-3.15.227-4.742.195l-4.872-.227a12.128,12.128,0,0,1-2.42-.162l-2.42-.357c-1.624-.276-3.248-.455-4.872-.8a79.866,79.866,0,0,1-19.179-6.967c-1.527-.828-3-1.8-4.531-2.7-.731-.471-1.526-.877-2.241-1.413l-2.144-1.624a81.448,81.448,0,0,1-8.25-7l-3.686-4.06-.926-1.023-.844-1.1-1.624-2.225-1.624-2.241-1.478-2.387-1.462-2.4-.731-1.2-.617-1.267c-.828-1.624-1.624-3.41-2.468-5.132s-1.315-3.589-1.981-5.375a71.957,71.957,0,0,1,0-45.86c.666-1.8,1.332-3.589,1.981-5.375a51.31,51.31,0,0,1,2.468-5.132l.617-1.267.747-1.2,1.462-2.4,1.462-2.4,1.624-2.225,1.624-2.225.844-1.1.926-1.023,3.7-4.06a81.768,81.768,0,0,1,8.25-7l2.127-1.624c.715-.536,1.51-.942,2.257-1.429,1.51-.893,2.988-1.851,4.515-2.7a77.314,77.314,0,0,1,9.484-4.141,75.6,75.6,0,0,1,9.744-2.826c1.624-.325,3.248-.52,4.872-.779l2.42-.374c.8-.1,1.624-.1,2.42-.146l4.872-.244c1.624,0,3.167.13,4.726.195a67.454,67.454,0,0,1,9.175,1.088,36.763,36.763,0,0,1,4.4,1.007c1.429.39,2.874.682,4.271,1.153L376,97.477l2.014.747,1.916.909,3.751,1.819c1.25.568,2.371,1.4,3.54,2.062s2.306,1.38,3.394,2.095l3.134,2.355A71.941,71.941,0,0,1,412.08,128.1a68.205,68.205,0,0,1,7.909,19.341,37.043,37.043,0,0,1,.909,3.962c.195,1.25.357,2.436.52,3.54s.341,2.095.422,3.021l.1,2.533.13,3.443C422.068,164.74,422.052,165.163,422.052,165.163Z" transform="translate(-158.377 -3.843)" fill="#263238"/>
      <path id="Path_2466" data-name="Path 2466" d="M340.266,150.18a16.532,16.532,0,1,0-12,0C302.85,153.785,304,179.72,304,179.72l60.086.26S365.453,153.753,340.266,150.18Z" transform="translate(-141.646 12.195)" fill="#e0e0e0"/>
      <path id="Path_2467" data-name="Path 2467" d="M256.66,319.757h-7.892a2,2,0,0,1-2-2v-7.827a2,2,0,0,1,2-1.932h7.827a2,2,0,0,1,2,2v7.746A2,2,0,0,1,256.66,319.757Zm-7.892-11.01a1.185,1.185,0,0,0-1.185,1.185v7.811a1.169,1.169,0,0,0,1.185,1.185h7.827a1.169,1.169,0,0,0,1.185-1.185v-7.827a1.185,1.185,0,0,0-1.185-1.185Z" transform="translate(-177.351 130.591)" fill="#263238"/>
      <path id="Path_2468" data-name="Path 2468" d="M262.7,316.072l-1.429-2.03h-2.062v2.014h-.942V309.43h2.582c1.721,0,2.761.877,2.761,2.306a2.079,2.079,0,0,1-1.462,2.095l1.624,2.225Zm0-4.32c0-.942-.633-1.478-1.851-1.478h-1.624v2.972h1.624C262.07,313.246,262.7,312.71,262.7,311.752Z" transform="translate(-170.176 131.483)" fill="#263238"/>
      <path id="Path_2469" data-name="Path 2469" d="M267.146,313.259H263.07a1.624,1.624,0,0,0,1.819,1.478,1.868,1.868,0,0,0,1.445-.617l.5.6a2.744,2.744,0,0,1-4.677-1.754,2.468,2.468,0,0,1,2.517-2.566,2.42,2.42,0,0,1,2.485,2.582,1.626,1.626,0,0,1-.016.276Zm-4.076-.65h3.248a1.624,1.624,0,1,0-3.248,0Z" transform="translate(-167.75 132.088)" fill="#263238"/>
      <path id="Path_2470" data-name="Path 2470" d="M274.363,312.617v2.891h-.909v-2.777c0-.991-.471-1.478-1.3-1.478a1.478,1.478,0,0,0-1.494,1.624v2.582h-.909v-2.777c0-.991-.487-1.478-1.3-1.478a1.462,1.462,0,0,0-1.51,1.624v2.582H266v-5.018h.877v.747a2.046,2.046,0,0,1,1.721-.8,1.884,1.884,0,0,1,1.754.926,2.29,2.29,0,0,1,1.932-.926,1.916,1.916,0,0,1,2.079,2.273Z" transform="translate(-165.353 132.047)" fill="#263238"/>
      <path id="Path_2471" data-name="Path 2471" d="M276.916,313.258H272.84a1.624,1.624,0,0,0,1.819,1.478,1.868,1.868,0,0,0,1.445-.617l.5.6a2.744,2.744,0,0,1-4.677-1.754,2.468,2.468,0,0,1,2.517-2.566,2.42,2.42,0,0,1,2.468,2.6S276.916,313.177,276.916,313.258Zm-4.076-.65h3.248a1.624,1.624,0,0,0-3.248,0Z" transform="translate(-161.654 132.088)" fill="#263238"/>
      <path id="Path_2472" data-name="Path 2472" d="M284.111,312.617v2.891H283.2V312.73c0-.991-.471-1.478-1.3-1.478a1.462,1.462,0,0,0-1.51,1.624v2.582H279.5v-2.777c0-.991-.487-1.478-1.3-1.478a1.461,1.461,0,0,0-1.51,1.624v2.582h-.909v-5.018h.877v.747a2.046,2.046,0,0,1,1.721-.8,1.884,1.884,0,0,1,1.754.926,2.274,2.274,0,0,1,1.916-.926,1.916,1.916,0,0,1,2.062,2.273Z" transform="translate(-159.251 132.048)" fill="#263238"/>
      <path id="Path_2473" data-name="Path 2473" d="M287.115,313.747a2.452,2.452,0,0,1-2.533,2.566,2.144,2.144,0,0,1-1.8-.861v.8H282V309.2h.909v2.761a2.144,2.144,0,0,1,1.754-.812,2.436,2.436,0,0,1,2.452,2.6Zm-.926,0a1.624,1.624,0,1,0-.421,1.244A1.624,1.624,0,0,0,286.19,313.747Z" transform="translate(-155.37 131.34)" fill="#263238"/>
      <path id="Path_2474" data-name="Path 2474" d="M290.626,313.259H286.55a1.624,1.624,0,0,0,1.819,1.478,1.868,1.868,0,0,0,1.445-.617l.5.6a2.744,2.744,0,0,1-4.677-1.754,2.468,2.468,0,0,1,2.517-2.566,2.42,2.42,0,0,1,2.485,2.582C290.642,313,290.626,313.177,290.626,313.259Zm-4.076-.65H289.8a1.637,1.637,0,0,0-3.248,0Z" transform="translate(-153.1 132.088)" fill="#263238"/>
      <path id="Path_2475" data-name="Path 2475" d="M292.233,310.4v.974h-.26A1.494,1.494,0,0,0,290.349,313v2.5h-.909v-5.018h.909v.893a1.9,1.9,0,0,1,1.884-.974Z" transform="translate(-150.728 132.083)" fill="#263238"/>
      <path id="Path_2476" data-name="Path 2476" d="M301.809,312.616v2.891h-.958V312.73c0-.991-.471-1.478-1.3-1.478a1.462,1.462,0,0,0-1.494,1.624v2.582h-.909v-2.777c0-.991-.471-1.478-1.3-1.478a1.461,1.461,0,0,0-1.51,1.624v2.582h-.909v-5.018h.926v.747a2.046,2.046,0,0,1,1.738-.8,1.868,1.868,0,0,1,1.738.926,2.29,2.29,0,0,1,1.932-.926,1.916,1.916,0,0,1,2.046,2.274Z" transform="translate(-148.238 132.048)" fill="#263238"/>
      <path id="Path_2477" data-name="Path 2477" d="M304.346,313.259H300.27a1.624,1.624,0,0,0,1.819,1.478,1.868,1.868,0,0,0,1.445-.617l.5.6a2.744,2.744,0,0,1-4.677-1.754,2.468,2.468,0,0,1,2.517-2.566,2.42,2.42,0,0,1,2.485,2.582A1.619,1.619,0,0,1,304.346,313.259Zm-4.076-.65h3.248a1.637,1.637,0,0,0-3.248,0Z" transform="translate(-144.539 132.088)" fill="#263238"/>
      <path id="Path_2478" data-name="Path 2478" d="M342.762,310.318v2.306h3.329v.812h-3.329v2.68h-.942V309.49H346.5v.828Z" transform="translate(-118.046 131.52)" fill="#fead54"/>
      <path id="Path_2479" data-name="Path 2479" d="M345.06,313.023a2.615,2.615,0,1,1,2.615,2.566,2.5,2.5,0,0,1-2.615-2.566Zm4.287,0a1.624,1.624,0,1,0-.421,1.244A1.624,1.624,0,0,0,349.348,313.023Z" transform="translate(-116.025 132.063)" fill="#fead54"/>
      <path id="Path_2480" data-name="Path 2480" d="M351.764,310.4v.974h-.211A1.494,1.494,0,0,0,349.929,313v2.5h-.909v-5.018h.861v.893a1.949,1.949,0,0,1,1.884-.974Z" transform="translate(-113.554 132.085)" fill="#fead54"/>
      <path id="Path_2481" data-name="Path 2481" d="M356.314,310.431v4.336a2.29,2.29,0,0,1-2.614,2.582,3.752,3.752,0,0,1-2.387-.747l.438-.7a3.069,3.069,0,0,0,1.932.65c1.185,0,1.721-.552,1.721-1.624v-.39a2.306,2.306,0,0,1-1.819.763,2.436,2.436,0,0,1,0-4.872,2.322,2.322,0,0,1,1.867.828v-.779Zm-.893,2.387a1.738,1.738,0,1,0-1.721,1.624,1.624,1.624,0,0,0,1.721-1.624Z" transform="translate(-112.225 132.106)" fill="#fead54"/>
      <path id="Path_2482" data-name="Path 2482" d="M355.11,313.023a2.615,2.615,0,1,1,2.615,2.566,2.5,2.5,0,0,1-2.615-2.566Zm4.3,0a1.624,1.624,0,1,0-.421,1.244,1.624,1.624,0,0,0,.421-1.244Z" transform="translate(-109.754 132.063)" fill="#fead54"/>
      <path id="Path_2483" data-name="Path 2483" d="M362.219,315.592a1.624,1.624,0,0,1-1.1.357,1.429,1.429,0,0,1-1.624-1.624v-2.761h-.861v-.747h.861V309.73h.909v1.088h1.429v.747H360.4v2.728a.731.731,0,0,0,.78.828,1.2,1.2,0,0,0,.715-.227Z" transform="translate(-107.558 131.67)" fill="#fead54"/>
      <path id="Path_2484" data-name="Path 2484" d="M368.529,311.746c0,1.445-1.056,2.322-2.777,2.322h-1.624v2h-.958V309.44h2.582C367.473,309.44,368.529,310.349,368.529,311.746Zm-.958,0c0-.942-.633-1.478-1.835-1.478h-1.624v2.972h1.624C366.937,313.24,367.571,312.7,367.571,311.746Z" transform="translate(-104.725 131.489)" fill="#fead54"/>
      <path id="Path_2485" data-name="Path 2485" d="M371.326,312.456v3.021h-.861v-.666a1.851,1.851,0,0,1-1.624.731c-1.137,0-1.851-.617-1.851-1.478s.52-1.478,2.014-1.478h1.445v-.179c0-.763-.455-1.2-1.348-1.2a2.469,2.469,0,0,0-1.624.536l-.374-.682a3.248,3.248,0,0,1,2.062-.65,1.868,1.868,0,0,1,2.16,2.046Zm-.893,1.494v-.7H369.02c-.893,0-1.153.341-1.153.763s.422.828,1.1.828a1.494,1.494,0,0,0,1.462-.893Z" transform="translate(-102.341 132.079)" fill="#fead54"/>
      <path id="Path_2486" data-name="Path 2486" d="M370.32,314.947l.373-.731a3.151,3.151,0,0,0,1.754.52c.844,0,1.2-.244,1.2-.682,0-1.121-3.167-.146-3.167-2.144,0-.893.8-1.51,2.079-1.51a3.735,3.735,0,0,1,1.835.455l-.39.731a2.647,2.647,0,0,0-1.445-.406c-.8,0-1.186.292-1.186.7,0,1.186,3.248.211,3.248,2.16,0,.909-.844,1.494-2.176,1.494a3.621,3.621,0,0,1-2.127-.585Z" transform="translate(-100.264 132.088)" fill="#fead54"/>
      <path id="Path_2487" data-name="Path 2487" d="M373.24,314.947l.374-.731a3.248,3.248,0,0,0,1.77.52c.844,0,1.185-.244,1.185-.682,0-1.121-3.248-.146-3.248-2.144,0-.893.8-1.51,2.095-1.51a3.719,3.719,0,0,1,1.819.455l-.39.731a2.647,2.647,0,0,0-1.445-.406c-.8,0-1.185.292-1.185.7,0,1.186,3.248.211,3.248,2.16,0,.909-.828,1.494-2.16,1.494A3.67,3.67,0,0,1,373.24,314.947Z" transform="translate(-98.442 132.088)" fill="#fead54"/>
      <path id="Path_2488" data-name="Path 2488" d="M384.4,310.43l-1.9,5.018h-.877l-1.445-3.8-1.462,3.8h-.877L376,310.43h.861l1.462,3.995,1.51-3.995h.763l1.494,4.011,1.494-4.011Z" transform="translate(-96.72 132.107)" fill="#fead54"/>
      <path id="Path_2489" data-name="Path 2489" d="M381.37,313.023a2.615,2.615,0,1,1,2.615,2.566,2.5,2.5,0,0,1-2.615-2.566Zm4.3,0a.69.69,0,1,1-.032,0Z" transform="translate(-93.37 132.063)" fill="#fead54"/>
      <path id="Path_2490" data-name="Path 2490" d="M388.054,310.4v.974h-.211A1.494,1.494,0,0,0,386.219,313v2.5h-.909v-5.018h.877v.893a1.916,1.916,0,0,1,1.867-.974Z" transform="translate(-90.911 132.084)" fill="#fead54"/>
      <path id="Path_2491" data-name="Path 2491" d="M392.609,309.219v7.015h-.877v-.844a2.111,2.111,0,0,1-1.786.861,2.566,2.566,0,0,1,0-5.132,2.16,2.16,0,0,1,1.754.812V309.17Zm-.974,4.547a1.624,1.624,0,1,0-.421,1.244A1.624,1.624,0,0,0,391.635,313.766Z" transform="translate(-89.619 131.321)" fill="#fead54"/>
      <path id="Path_2492" data-name="Path 2492" d="M394.925,311.227c0-.6-.5-1.023-1.348-1.023a2.03,2.03,0,0,0-1.705.747l-.682-.487a2.907,2.907,0,0,1,2.452-1.072c1.364,0,2.241.65,2.241,1.624,0,1.624-1.624,1.624-1.624,2.923H393.3C393.252,312.527,394.925,312.316,394.925,311.227Zm-1.8,4.32a.6.6,0,0,1,.617-.6.585.585,0,0,1,.6.6.609.609,0,1,1-1.218,0Z" transform="translate(-87.242 131.456)" fill="#fead54"/>
      <path id="Path_2493" data-name="Path 2493" d="M251,314.953a.666.666,0,0,1-.39-.13l-1.721-1.413a.606.606,0,0,1,.763-.942l1.283,1.039,2.972-3.248a.617.617,0,0,1,.893.828l-3.362,3.7a.585.585,0,0,1-.438.162Z" transform="translate(-176.172 131.92)" fill="#263238"/>
      <path id="Path_2494" data-name="Path 2494" d="M387.283,212.158a5.1,5.1,0,0,0,3.021-4.693,4.758,4.758,0,1,0-9.5,0,5.067,5.067,0,0,0,3.021,4.742c-7.308,1.088-6.983,9.045-6.983,9.045h17.295S394.526,213.246,387.283,212.158Z" transform="translate(-96.197 64.721)" fill="#e0e0e0"/>
      <path id="Path_2495" data-name="Path 2495" d="M406.814,79.91h17.392a1.023,1.023,0,0,0,0-2.03H406.814a1.023,1.023,0,0,0,0,2.03Z" transform="translate(-78.052 -12.99)" fill="#263238"/>
      <path id="Path_2496" data-name="Path 2496" d="M406.814,83.28h17.392a1.023,1.023,0,0,0,0-2.03H406.814a1.023,1.023,0,0,0,0,2.03Z" transform="translate(-78.052 -10.887)" fill="#263238"/>
      <path id="Path_2497" data-name="Path 2497" d="M406.814,86.65h17.392a1.023,1.023,0,0,0,0-2.03H406.814a1.023,1.023,0,0,0,0,2.03Z" transform="translate(-78.052 -8.785)" fill="#263238"/>
    </g>
    <g id="freepik--Plant--inject-101" transform="translate(613.901 469.259)">
      <path id="Path_2498" data-name="Path 2498" d="M401.63,351.438a10.426,10.426,0,0,1,.7,4.45,14.924,14.924,0,0,1,2.03-5.034c.357-.568.942-1.185,1.624-1.023s.877.991.893,1.624a10.993,10.993,0,0,1-1.218,5.424,12.146,12.146,0,0,1,4.579-3.556,1.137,1.137,0,0,1,.991-.081,1.1,1.1,0,0,1,.292,1.12,9.272,9.272,0,0,1-5.716,7.129l-.958.146a8.623,8.623,0,0,1-6.187-9.922c.146-.8.6-1.721,1.413-1.738S401.354,350.772,401.63,351.438Z" transform="translate(-372.383 -259.295)" fill="#fead54"/>
      <path id="Path_2499" data-name="Path 2499" d="M426.213,391.119a27.48,27.48,0,0,0-9.208-3.719,37.871,37.871,0,0,0,.26-20.364,19.324,19.324,0,0,0-3.443-7.34,10.02,10.02,0,0,0-6.918-3.865,9.744,9.744,0,0,0-7.7,3.573l-3.394,7.86a31.339,31.339,0,0,0-.406,3.459,41.557,41.557,0,0,0,4.969,22c-3.556,3.9-7.389,10.637-6.236,18.448h40.387C435.242,403.688,432.384,395.568,426.213,391.119Z" transform="translate(-375.238 -255.536)" fill="#85d1a0"/>
      <path id="Path_2500" data-name="Path 2500" d="M396.79,383.06a1.772,1.772,0,0,1,.309-.438,10.739,10.739,0,0,1,.991-1.153,18.508,18.508,0,0,1,4.482-3.427,21.256,21.256,0,0,1,7.957-2.549,19.293,19.293,0,0,1,18.123,7.811,21.257,21.257,0,0,1,3.621,7.535,19.294,19.294,0,0,1,.585,5.619,14.749,14.749,0,0,1-.162,1.51,1.816,1.816,0,0,1-.114.536,24.359,24.359,0,0,0-.731-7.551,21.517,21.517,0,0,0-3.654-7.308,19.033,19.033,0,0,0-17.6-7.584,21.5,21.5,0,0,0-7.811,2.355,24.783,24.783,0,0,0-5.992,4.644Z" transform="translate(-373.454 -243.369)" fill="#263238"/>
      <path id="Path_2501" data-name="Path 2501" d="M394.745,372.926a9.747,9.747,0,0,1,0-2.679,23.047,23.047,0,0,1,1.1-6.382,13.219,13.219,0,0,1,3.443-5.505,5.505,5.505,0,0,1,2.29-1.429c0,.081-.861.585-1.981,1.738a14.615,14.615,0,0,0-3.248,5.391,29.566,29.566,0,0,0-1.234,6.22,13.541,13.541,0,0,1-.374,2.647Z" transform="translate(-374.787 -254.849)" fill="#263238"/>
      <path id="Path_2502" data-name="Path 2502" d="M409.09,389.664q3.694-3.93,7.665-7.584a28.076,28.076,0,0,1-7.665,7.584Z" transform="translate(-365.78 -239.157)" fill="#263238"/>
      <path id="Path_2503" data-name="Path 2503" d="M406.32,388.326a13.854,13.854,0,0,1,.65-4.011,14.194,14.194,0,0,1,1.25-3.865,13.852,13.852,0,0,1-.65,4.011A13.577,13.577,0,0,1,406.32,388.326Z" transform="translate(-367.508 -240.174)" fill="#263238"/>
      <path id="Path_2504" data-name="Path 2504" d="M398.93,382.54a10.281,10.281,0,0,1,2.306,3.654,10.557,10.557,0,0,1,1.234,4.125,25.288,25.288,0,0,1-1.8-3.881,27.936,27.936,0,0,1-1.738-3.9Z" transform="translate(-372.119 -238.87)" fill="#263238"/>
      <path id="Path_2505" data-name="Path 2505" d="M406.92,373.946a39.073,39.073,0,0,1,5.96-7.876,19.849,19.849,0,0,1-2.744,4.125,20.4,20.4,0,0,1-3.216,3.751Z" transform="translate(-367.134 -249.146)" fill="#263238"/>
      <path id="Path_2506" data-name="Path 2506" d="M405.16,366.884a59.01,59.01,0,0,1,6.691-9.744,27.767,27.767,0,0,1-3.085,5.05,28.414,28.414,0,0,1-3.605,4.693Z" transform="translate(-368.232 -254.718)" fill="#263238"/>
      <path id="Path_2507" data-name="Path 2507" d="M402.377,365.18a15.576,15.576,0,0,1,.585,4.287,14.848,14.848,0,0,1,0,4.32,31.048,31.048,0,0,1-.536-8.607Z" transform="translate(-369.995 -249.701)" fill="#263238"/>
      <path id="Path_2508" data-name="Path 2508" d="M391.19,368.72a25.981,25.981,0,0,1,5.733,2.939,26.831,26.831,0,0,1,5.229,3.751,47.256,47.256,0,0,1-5.554-3.248A45.963,45.963,0,0,1,391.19,368.72Z" transform="translate(-376.948 -247.493)" fill="#263238"/>
      <g id="Group_175" data-name="Group 175" transform="translate(25.301 130.46)" opacity="0.3">
        <path id="Path_2509" data-name="Path 2509" d="M401.475,376.053a14.243,14.243,0,0,1,6.5-1.624c2.355-.114,4.986.13,6.577,1.867v.081A24.36,24.36,0,0,0,398,381.558a6.626,6.626,0,0,1,3.475-5.505Z" transform="translate(-398 -374.405)"/>
      </g>
      <path id="Path_2510" data-name="Path 2510" d="M412.476,329.451a7.974,7.974,0,0,1,3.556-.13,11.757,11.757,0,0,1-3.751-2.062c-.422-.341-.844-.844-.65-1.348s.861-.585,1.4-.536a8.559,8.559,0,0,1,4.109,1.478,9.744,9.744,0,0,1-2.338-3.93.828.828,0,0,1,0-.78c.195-.244.585-.211.893-.13a7.324,7.324,0,0,1,5.067,5.083v.763a6.788,6.788,0,0,1-8.282,3.914c-.617-.195-1.3-.65-1.234-1.283S411.859,329.6,412.476,329.451Z" transform="translate(-364.44 -276.672)" fill="#fead54"/>
      <path id="Path_2511" data-name="Path 2511" d="M463.233,295.223a8.12,8.12,0,0,1-.211,3.605,11.611,11.611,0,0,1,2.355-3.557c.374-.39.926-.763,1.4-.536s.52.909.422,1.445a8.7,8.7,0,0,1-1.8,3.979,9.5,9.5,0,0,1,4.092-2.014.828.828,0,0,1,.78.1.845.845,0,0,1,0,.893,7.307,7.307,0,0,1-5.473,4.628h-.78a6.746,6.746,0,0,1-3.15-8.558c.244-.6.731-1.25,1.364-1.121A1.258,1.258,0,0,1,463.233,295.223Z" transform="translate(-333.789 -294.07)" fill="#fead54"/>
      <path id="Path_2512" data-name="Path 2512" d="M435.708,398.376c.6,0,1.169.1,1.738.146,1.039-11.546-2.452-23.255,1.072-34.281l-.471.6A26.1,26.1,0,0,1,425.4,363.7a15.8,15.8,0,0,1-9.159-8.493,11.368,11.368,0,0,1,1.949-11.985c3.995-4.174,11.026-3.962,16.028-1.088s8.233,7.438,11.368,12.033a20.8,20.8,0,0,1,5.521-3.248c-5.57-7.665-10.962-15.7-12.715-24.976-1.867-10.1,1.868-22.053,11.319-26.34,8.006-3.605,18.042-.341,23.693,6.382.438.52.812,1.088,1.2,1.624l-.179-.552a14.616,14.616,0,0,1,7.6-8.022,12.472,12.472,0,0,1,10.945.536,10.783,10.783,0,0,1,5.359,9.37,12.017,12.017,0,0,1-6.951,9.987,18.821,18.821,0,0,1-11.985,1.12,36.147,36.147,0,0,1,0,10.75,61.939,61.939,0,0,1-9.11,22.524,20.951,20.951,0,0,1,3.248,2.712c7.259,7.6,7.73,19.8,3.914,29.588s-14.1,17.019-21.241,24.733h0a47.094,47.094,0,0,1,5.489,17.23,15.655,15.655,0,0,1,13.82-8.867c3.118,0,6.609,1.413,7.584,4.368.844,2.615-.585,5.44-2.452,7.47a19.828,19.828,0,0,1-18.286,5.359V434a81.656,81.656,0,0,1-.309,13.17H415.9S403.538,397.19,435.708,398.376Z" transform="translate(-362.988 -291.601)" fill="#85d1a0"/>
      <rect id="Rectangle_282" data-name="Rectangle 282" width="109.047" height="19.325" transform="translate(109.08 174.963) rotate(180)" fill="#0d62b6"/>
      <path id="Path_2513" data-name="Path 2513" d="M480.226,399.45l-13.268,57.763h-64.99L387.45,399.45Z" transform="translate(-379.282 -228.319)" fill="#0d62b6"/>
      <path id="Path_2514" data-name="Path 2514" d="M382.48,401.98c0,.211,24.586.374,54.922.374s54.938-.162,54.938-.374-24.586-.39-54.938-.39S382.48,401.769,382.48,401.98Z" transform="translate(-382.383 -226.984)" fill="#263238"/>
      <path id="Path_2515" data-name="Path 2515" d="M421.94,361.817a2.938,2.938,0,0,1,.633-.357,13.381,13.381,0,0,1,1.916-.828,18.658,18.658,0,0,1,7.584-.861,23.028,23.028,0,0,1,10.669,3.735,28.386,28.386,0,0,1,9.175,10.377,42.387,42.387,0,0,1,4.4,13.17,71.294,71.294,0,0,1,.731,11.368c0,3.248-.114,5.814-.179,7.616a12.888,12.888,0,0,1-.1,2.079,3.064,3.064,0,0,1,0,.714,4.072,4.072,0,0,1,0-.714c0-.552,0-1.234,0-2.079v-7.681a75.622,75.622,0,0,0-.877-11.221,41.819,41.819,0,0,0-4.368-12.992,28.273,28.273,0,0,0-8.948-10.2,23.06,23.06,0,0,0-10.409-3.784,19.487,19.487,0,0,0-7.47.666C422.849,361.379,422.037,361.817,421.94,361.817Z" transform="translate(-357.762 -253.126)" fill="#263238"/>
      <path id="Path_2516" data-name="Path 2516" d="M427.985,355.844a2,2,0,0,1-.081-.536,10.523,10.523,0,0,1,0-1.624,27.412,27.412,0,0,1,3.9-13.787,21.731,21.731,0,0,1,3.086-4.076,18.045,18.045,0,0,1,4.32-3.427,18.335,18.335,0,0,1,5.148-1.981,21.308,21.308,0,0,1,5.115-.373,25.008,25.008,0,0,1,8.38,2,27.788,27.788,0,0,1,5.115,2.777c.568.373.974.715,1.267.942s.422.341.406.357a17.52,17.52,0,0,1-1.8-1.1,33.842,33.842,0,0,0-5.148-2.582,25.483,25.483,0,0,0-8.25-1.819,21.876,21.876,0,0,0-4.969.39,18.335,18.335,0,0,0-4.969,1.933,17.864,17.864,0,0,0-4.174,3.248,22.125,22.125,0,0,0-3.053,3.962,28.014,28.014,0,0,0-3.248,7.811,29.637,29.637,0,0,0-.861,5.684A9.3,9.3,0,0,1,427.985,355.844Z" transform="translate(-354.063 -271.642)" fill="#263238"/>
      <path id="Path_2517" data-name="Path 2517" d="M457.591,324.826a23.288,23.288,0,0,1-.39-3.7c-.081-1.153-.211-2.5-.455-3.979a19.647,19.647,0,0,0-1.3-4.677,47.528,47.528,0,0,0-4.222-7.844c-1.25-1.916-2.209-2.956-2.144-3.021s.309.195.763.666a21.987,21.987,0,0,1,1.738,2.111,38.65,38.65,0,0,1,4.433,7.844A18.218,18.218,0,0,1,457.3,317.1a33.546,33.546,0,0,1,.341,4.044,23,23,0,0,1-.049,3.686Z" transform="translate(-340.829 -289.375)" fill="#263238"/>
      <path id="Path_2518" data-name="Path 2518" d="M450.66,379.71a24.994,24.994,0,0,1,5.879,5.115,13.446,13.446,0,0,1-3.15-2.322,12.293,12.293,0,0,1-2.728-2.793Z" transform="translate(-339.842 -240.635)" fill="#263238"/>
      <path id="Path_2519" data-name="Path 2519" d="M453,377.67a13.741,13.741,0,0,1,3.914-.7,12.389,12.389,0,0,1,3.962,0,26.128,26.128,0,0,1-7.876.763Z" transform="translate(-338.382 -242.444)" fill="#263238"/>
      <path id="Path_2520" data-name="Path 2520" d="M451.23,375.471a25.2,25.2,0,0,1,2.192-3.021,22.512,22.512,0,0,1,2.209-3.02,8.119,8.119,0,0,1-1.705,3.378A7.8,7.8,0,0,1,451.23,375.471Z" transform="translate(-339.487 -247.05)" fill="#263238"/>
      <path id="Path_2521" data-name="Path 2521" d="M448.84,371.23a17.46,17.46,0,0,1-.715,4.466,17.147,17.147,0,0,1-1.315,4.32,16.629,16.629,0,0,1,.714-4.466A15.963,15.963,0,0,1,448.84,371.23Z" transform="translate(-342.245 -245.926)" fill="#263238"/>
      <path id="Path_2522" data-name="Path 2522" d="M445.934,382.092c-.114-.114.617-.958,1.624-1.867s1.932-1.543,2.046-1.429-.617.974-1.624,1.884S446.048,382.222,445.934,382.092Z" transform="translate(-342.798 -241.215)" fill="#263238"/>
      <path id="Path_2523" data-name="Path 2523" d="M436.06,380.769a8.446,8.446,0,0,1,1.981-2.517c1.218-1.25,2.29-2.192,2.42-2.079a8.444,8.444,0,0,1-1.981,2.517A12.954,12.954,0,0,1,436.06,380.769Z" transform="translate(-348.952 -242.848)" fill="#263238"/>
      <path id="Path_2524" data-name="Path 2524" d="M433.92,372.034a9.3,9.3,0,0,1,1.478-2.988,9.485,9.485,0,0,1,2-2.7,9.142,9.142,0,0,1-1.478,3,8.978,8.978,0,0,1-2,2.68Z" transform="translate(-350.287 -248.971)" fill="#263238"/>
      <path id="Path_2525" data-name="Path 2525" d="M427.761,362.43a12.812,12.812,0,0,1,.357,3.849,12.311,12.311,0,0,1-.26,3.849,12.75,12.75,0,0,1-.357-3.832,11.966,11.966,0,0,1,.26-3.865Z" transform="translate(-354.326 -251.417)" fill="#263238"/>
      <path id="Path_2526" data-name="Path 2526" d="M414.45,365a27.749,27.749,0,0,1,3.053,3.556,28.847,28.847,0,0,1,2.907,3.654,13.09,13.09,0,0,1-3.378-3.248A13.754,13.754,0,0,1,414.45,365Z" transform="translate(-362.435 -249.814)" fill="#263238"/>
      <path id="Path_2527" data-name="Path 2527" d="M412.76,377.906a12.115,12.115,0,0,1,3.816.422,12.589,12.589,0,0,1,3.7,1.023,11.58,11.58,0,0,1-3.816-.422A12.032,12.032,0,0,1,412.76,377.906Z" transform="translate(-363.49 -241.77)" fill="#263238"/>
      <path id="Path_2528" data-name="Path 2528" d="M426.44,385.436a10.9,10.9,0,0,1,1.478-4.206,11.06,11.06,0,0,1,2.517-3.67Q428.47,381.514,426.44,385.436Z" transform="translate(-354.954 -241.977)" fill="#263238"/>
      <path id="Path_2529" data-name="Path 2529" d="M422.046,378.6a8.331,8.331,0,0,1-.374-3.118,8.121,8.121,0,0,1,.227-3.118,8.118,8.118,0,0,1,.39,3.118,8.363,8.363,0,0,1-.244,3.118Z" transform="translate(-357.966 -245.221)" fill="#263238"/>
      <path id="Path_2530" data-name="Path 2530" d="M436.6,389.409a6.837,6.837,0,0,1,1.3-3.248,6.967,6.967,0,0,1,2.306-2.631,17.868,17.868,0,0,1-1.786,2.956A18.345,18.345,0,0,1,436.6,389.409Z" transform="translate(-348.615 -238.252)" fill="#263238"/>
      <path id="Path_2531" data-name="Path 2531" d="M422.042,390.446a10.017,10.017,0,0,1-1.624-2.988,9.742,9.742,0,0,1-1.088-3.248,18.839,18.839,0,0,1,2.744,6.22Z" transform="translate(-359.39 -237.828)" fill="#263238"/>
      <path id="Path_2532" data-name="Path 2532" d="M445.25,359.278a14.744,14.744,0,0,1,4.238-.179,14.453,14.453,0,0,1,4.206.455,15.119,15.119,0,0,1-4.238.162,15.543,15.543,0,0,1-4.206-.439Z" transform="translate(-343.218 -253.543)" fill="#263238"/>
      <path id="Path_2533" data-name="Path 2533" d="M450.92,351.8a20.859,20.859,0,0,1,4.044-3.248,23.1,23.1,0,0,1,4.417-2.761,21.647,21.647,0,0,1-4.06,3.248,22.731,22.731,0,0,1-4.4,2.761Z" transform="translate(-339.68 -261.799)" fill="#263238"/>
      <path id="Path_2534" data-name="Path 2534" d="M450.374,338.678a25.512,25.512,0,0,1,3.248-2.176,24.694,24.694,0,0,1,3.248-2.192,13.154,13.154,0,0,1-6.609,4.368Z" transform="translate(-340.092 -268.962)" fill="#263238"/>
      <path id="Path_2535" data-name="Path 2535" d="M444,336.384a40.845,40.845,0,0,1,2.387-9.744,20.244,20.244,0,0,1-.893,4.872A19.059,19.059,0,0,1,444,336.384Z" transform="translate(-343.998 -273.748)" fill="#263238"/>
      <path id="Path_2536" data-name="Path 2536" d="M433.38,329.51a10.133,10.133,0,0,1,2.014,2.956,10.605,10.605,0,0,1,1.462,3.248,10.572,10.572,0,0,1-2-2.956A10.912,10.912,0,0,1,433.38,329.51Z" transform="translate(-350.624 -271.957)" fill="#263238"/>
      <path id="Path_2537" data-name="Path 2537" d="M424.25,350.5c.114-.13,2.079,1.38,4.661,2.956s4.791,2.7,4.726,2.858a15.72,15.72,0,0,1-5.05-2.339,15.3,15.3,0,0,1-4.336-3.475Z" transform="translate(-356.321 -258.864)" fill="#263238"/>
      <path id="Path_2538" data-name="Path 2538" d="M439.06,356.709a21.582,21.582,0,0,1,6.236-3.849,22.557,22.557,0,0,1-6.236,3.849Z" transform="translate(-347.08 -257.388)" fill="#263238"/>
      <path id="Path_2539" data-name="Path 2539" d="M441.543,348.282c-.13-.13,1.429-1.624,2.874-3.881s2.241-4.255,2.42-4.19a10.313,10.313,0,0,1-1.9,4.515A10.068,10.068,0,0,1,441.543,348.282Z" transform="translate(-345.536 -265.282)" fill="#263238"/>
      <path id="Path_2540" data-name="Path 2540" d="M436.767,345.946a12.7,12.7,0,0,1-.13-3.962,12.99,12.99,0,0,1,.487-3.914,12.52,12.52,0,0,1,.13,3.946,13.2,13.2,0,0,1-.487,3.93Z" transform="translate(-348.652 -266.616)" fill="#263238"/>
      <path id="Path_2541" data-name="Path 2541" d="M434.389,355.935a13.559,13.559,0,0,1-.763-3.995,13.171,13.171,0,0,1-.162-4.06,14.207,14.207,0,0,1,.763,3.995,13.8,13.8,0,0,1,.162,4.06Z" transform="translate(-350.626 -260.495)" fill="#263238"/>
      <path id="Path_2542" data-name="Path 2542" d="M426.485,322.94a35.437,35.437,0,0,1,1.283,4.515,38.085,38.085,0,0,1,1.3,4.5,11.968,11.968,0,0,1-1.884-4.336A12.178,12.178,0,0,1,426.485,322.94Z" transform="translate(-354.934 -276.056)" fill="#263238"/>
      <path id="Path_2543" data-name="Path 2543" d="M421.19,342.348a32.81,32.81,0,0,1,3.524-2.6,29.52,29.52,0,0,1,3.556-2.55,11.367,11.367,0,0,1-3.248,3.053,10.93,10.93,0,0,1-3.833,2.095Z" transform="translate(-358.23 -267.159)" fill="#263238"/>
      <path id="Path_2544" data-name="Path 2544" d="M414,335.636a27.01,27.01,0,0,1,4.3-.877,29.56,29.56,0,0,1,4.32-.779A17.425,17.425,0,0,1,414,335.6Z" transform="translate(-362.716 -269.168)" fill="#263238"/>
      <path id="Path_2545" data-name="Path 2545" d="M421,329.009c.081-.146,1.185.39,2.452,1.2s2.225,1.624,2.127,1.738a6.5,6.5,0,0,1-2.452-1.218C421.863,329.984,420.905,329.22,421,329.009Z" transform="translate(-358.351 -272.285)" fill="#263238"/>
      <path id="Path_2546" data-name="Path 2546" d="M417.51,322.58a7.486,7.486,0,0,1,2.793,2.306,7.584,7.584,0,0,1,1.9,3.085,18.576,18.576,0,0,1-2.371-2.68,18.324,18.324,0,0,1-2.322-2.712Z" transform="translate(-360.526 -276.281)" fill="#263238"/>
      <path id="Path_2547" data-name="Path 2547" d="M412.75,328.74a22.179,22.179,0,0,1,3.962.974,23.4,23.4,0,0,1,3.946,1.137,10.086,10.086,0,0,1-4.092-.536A10.654,10.654,0,0,1,412.75,328.74Z" transform="translate(-363.496 -272.438)" fill="#263238"/>
      <path id="Path_2548" data-name="Path 2548" d="M445.713,324.512c-.13-.1,1.624-2.387,3.475-5.31a57.873,57.873,0,0,1,3.556-5.262,23.87,23.87,0,0,1-3.037,5.6,22.73,22.73,0,0,1-3.995,4.969Z" transform="translate(-342.934 -281.672)" fill="#263238"/>
      <path id="Path_2549" data-name="Path 2549" d="M443.6,316.4a17.865,17.865,0,0,1,.292-4.579,16.338,16.338,0,0,1,.909-4.482,17.764,17.764,0,0,1-.292,4.563,17.313,17.313,0,0,1-.91,4.5Z" transform="translate(-344.268 -285.79)" fill="#263238"/>
      <path id="Path_2550" data-name="Path 2550" d="M436.27,314.09c.179,0,.682,2.322,1.851,5.018s2.533,4.677,2.387,4.791a12.569,12.569,0,0,1-2.956-4.547A12.213,12.213,0,0,1,436.27,314.09Z" transform="translate(-348.821 -281.578)" fill="#263238"/>
      <path id="Path_2551" data-name="Path 2551" d="M427.67,315.912c.13-.114,1.868,1.949,4.271,4.19s4.547,3.881,4.45,4.027a17.863,17.863,0,0,1-4.872-3.573,17.454,17.454,0,0,1-3.849-4.645Z" transform="translate(-354.187 -280.444)" fill="#263238"/>
      <path id="Path_2552" data-name="Path 2552" d="M431,300.29c.179,0,.715,2.55,1.624,5.635s1.949,5.521,1.786,5.6a18.19,18.19,0,0,1-2.387-5.424A18.433,18.433,0,0,1,431,300.29Z" transform="translate(-352.109 -290.189)" fill="#263238"/>
      <path id="Path_2553" data-name="Path 2553" d="M440.975,295.15a17.443,17.443,0,0,1,.568,4.515,17.23,17.23,0,0,1,0,4.547,16.241,16.241,0,0,1-.585-4.515,16.046,16.046,0,0,1,.016-4.547Z" transform="translate(-345.991 -293.396)" fill="#263238"/>
      <path id="Path_2554" data-name="Path 2554" d="M461.36,308.362a18.858,18.858,0,0,1,3.459.244,17.553,17.553,0,0,1,3.459.325,7.179,7.179,0,0,1-3.508.292A6.918,6.918,0,0,1,461.36,308.362Z" transform="translate(-333.166 -285.155)" fill="#263238"/>
      <path id="Path_2555" data-name="Path 2555" d="M460.76,305.2a25.793,25.793,0,0,1,4.758-2.874A25.5,25.5,0,0,1,470.552,300a25.792,25.792,0,0,1-4.758,2.874,25.505,25.505,0,0,1-5.034,2.322Z" transform="translate(-333.541 -290.37)" fill="#263238"/>
      <path id="Path_2556" data-name="Path 2556" d="M455.23,306.6a30.434,30.434,0,0,1,2.615-8.347,15.654,15.654,0,0,1-1.023,4.255A16.594,16.594,0,0,1,455.23,306.6Z" transform="translate(-336.991 -291.461)" fill="#263238"/>
      <g id="Group_176" data-name="Group 176" transform="translate(74.198 105.545)" opacity="0.3">
        <path id="Path_2557" data-name="Path 2557" d="M447,372.391a14.388,14.388,0,0,0-6.155-11.27c-3.621-2.452-10.166-2.68-12.732-.861a19.779,19.779,0,0,1,11.173,3.849A31.473,31.473,0,0,1,447,372.391" transform="translate(-428.11 -359.063)"/>
      </g>
      <g id="Group_177" data-name="Group 177" transform="translate(88.115 55.667)" opacity="0.3">
        <path id="Path_2558" data-name="Path 2558" d="M455.859,335.317a12.439,12.439,0,0,0-8.769-6.837c-3.735-.682-9.013,1.4-10.409,3.735a17.1,17.1,0,0,1,10.2-.812,27.608,27.608,0,0,1,8.98,3.914" transform="translate(-436.68 -328.349)"/>
      </g>
      <g id="Group_178" data-name="Group 178" transform="translate(111.24 15.818)" opacity="0.3">
        <path id="Path_2559" data-name="Path 2559" d="M456.376,317.191a9.857,9.857,0,0,0,.6-8.509,8.347,8.347,0,0,0-6.057-4.872c2.891,4.19,5.164,8.461,5.375,13.544" transform="translate(-450.92 -303.81)"/>
      </g>
      <path id="Path_2560" data-name="Path 2560" d="M421.84,362.62a15.543,15.543,0,0,0-1.25,1.332,24.358,24.358,0,0,0-2.744,4.157,44.721,44.721,0,0,0-4,15.785,72.3,72.3,0,0,0,.812,16.369c.325,2.079.633,3.768.861,4.872a12.823,12.823,0,0,1,.276,1.819,8.336,8.336,0,0,1-.536-1.754c-.292-1.153-.682-2.826-1.072-4.872a65.136,65.136,0,0,1-1.007-16.5,41.85,41.85,0,0,1,4.255-15.963,20.35,20.35,0,0,1,3-4.027,4.871,4.871,0,0,1,1.4-1.218Z" transform="translate(-363.314 -251.299)" fill="#263238"/>
      <path id="Path_2561" data-name="Path 2561" d="M491.5,390.053h-5.05l-13.771.146-45.389.1-44.853-.081.211-.227V408c0-.926,0-2.209-.081-3.849,0-3.394-.081-8.217-.146-14.161v-.211h.227l44.853-.1,45.389.1,13.755.1h4.726a1.312,1.312,0,0,1,.13.179Z" transform="translate(-382.42 -234.415)" fill="#263238"/>
    </g>
    <g id="freepik--speech-bubble--inject-101" transform="translate(62.032 273.228)">
      <path id="Path_2562" data-name="Path 2562" d="M104.021,218.174a6.691,6.691,0,1,1-6.674-6.674,6.691,6.691,0,0,1,6.674,6.674Z" transform="translate(-12.604 -149.558)" fill="#fff"/>
      <path id="Path_2563" data-name="Path 2563" d="M104.183,218.333a5.6,5.6,0,0,0-.357-1.624,6.723,6.723,0,0,0-2.452-3.475,6.317,6.317,0,1,0,0,10.15,6.691,6.691,0,0,0,2.452-3.491c.292-.991.292-1.624.357-1.624a3.248,3.248,0,0,1,0,1.624,6.5,6.5,0,0,1-2.452,3.946,6.934,6.934,0,0,1-6.626,1.088,7.032,7.032,0,0,1,0-13.284,6.95,6.95,0,0,1,6.626,1.1,6.5,6.5,0,0,1,2.4,3.865,3.151,3.151,0,0,1,.049,1.721Z" transform="translate(-12.765 -149.716)" fill="#263238"/>
      <path id="Path_2564" data-name="Path 2564" d="M84.469,249.946a38.2,38.2,0,1,0-27.931-8.707,38.227,38.227,0,0,0,27.931,8.707Z" transform="translate(-42.451 -173.178)" fill="#fff"/>
      <path id="Path_2565" data-name="Path 2565" d="M84.6,250.126a2.468,2.468,0,0,1-.617.081l-1.819.114H79.212a25.6,25.6,0,0,1-4.027-.373,36.36,36.36,0,0,1-10.6-3.248,38.39,38.39,0,0,1-20.721-44.5,39.46,39.46,0,0,1,1.738-5.229A39.215,39.215,0,0,1,65.717,176.61a38.179,38.179,0,0,1,24.359-2.192,37.578,37.578,0,0,1,11.108,4.547,36.051,36.051,0,0,1,8.9,7.405,40.727,40.727,0,0,1,3.443,4.45,38.976,38.976,0,0,1,2.647,4.872,38.487,38.487,0,0,1-12.423,47.5,36.07,36.07,0,0,1-9.857,5.067,25.727,25.727,0,0,1-3.9,1.088c-.568.13-1.088.276-1.624.357l-1.332.179-1.819.211H84.6l.617-.13,1.786-.292,1.315-.211c.487-.1,1.007-.244,1.624-.39a29.692,29.692,0,0,0,3.849-1.153,36.8,36.8,0,0,0,9.744-5.148,38.033,38.033,0,0,0,9.744-10.6,37.562,37.562,0,0,0,5.586-16.515A38.065,38.065,0,0,0,115.426,196a38.552,38.552,0,0,0-2.615-4.726,40.6,40.6,0,0,0-3.378-4.352,43.844,43.844,0,0,0-4.027-3.93,39.867,39.867,0,0,0-4.693-3.248,36.912,36.912,0,0,0-10.864-4.45,40.988,40.988,0,0,0-12.066-.861,40.241,40.241,0,0,0-11.79,3,36.733,36.733,0,0,0-9.744,6.317,45.585,45.585,0,0,0-4.044,4.076,46.41,46.41,0,0,0-3.248,4.612,35.125,35.125,0,0,0-4.271,9.987,37.994,37.994,0,0,0,20.169,43.863,36.425,36.425,0,0,0,10.458,3.248A28.147,28.147,0,0,0,79.31,250c.568,0,1.1.1,1.624.1h3.15Z" transform="translate(-42.586 -173.357)" fill="#263238"/>
      <path id="Path_2566" data-name="Path 2566" d="M72.355,215.745,56.83,204.264l4.011-5.408,10.409,7.681L85.46,189.47l5.164,4.3Z" transform="translate(-33.699 -163.303)" fill="#fead54"/>
    </g>
    <g id="freepik--Character--inject-101" transform="translate(34.068 215.998)">
      <path id="Path_2567" data-name="Path 2567" d="M76.842,408.17,68.56,478.389H81.275l22.768-70.219Z" transform="translate(1.584 30.383)" fill="#e0e0e0"/>
      <path id="Path_2568" data-name="Path 2568" d="M105.426,391.61,97.16,461.829h12.715l22.768-70.219Z" transform="translate(19.428 20.05)" fill="#e0e0e0"/>
      <path id="Path_2569" data-name="Path 2569" d="M219.493,408.17l9.029,70.219H214.67L189.84,408.17Z" transform="translate(77.255 30.383)" fill="#e0e0e0"/>
      <path id="Path_2570" data-name="Path 2570" d="M192.923,392.67l9.029,70.219H188.1L163.27,392.67Z" transform="translate(60.677 20.712)" fill="#e0e0e0"/>
      <path id="Path_2571" data-name="Path 2571" d="M141.841,250.015s-34.752,2.452-58.056,14.437C65.5,273.87,56.6,287.073,52.93,320.266s-26.925,40-27.526,51.365c-.585,11.091,5.1,58.462,45.957,153.349a11.887,11.887,0,0,0,10.913,7.178H223.882V247.79Z" transform="translate(-25.366 -69.684)" fill="#455a64"/>
      <path id="Path_2572" data-name="Path 2572" d="M211.723,250.015s34.752,2.452,58.056,14.437c18.286,9.419,27.185,22.621,30.855,55.815s26.925,40,27.526,51.365c.585,11.124-5.132,58.8-46.363,154.274a10.3,10.3,0,0,1-9.451,6.2H129.6V247.79Z" transform="translate(39.669 -69.684)" fill="#455a64"/>
      <path id="Path_2573" data-name="Path 2573" d="M201.75,393.759a14.769,14.769,0,0,1,2.517-.471,23.286,23.286,0,0,1,6.967.325,17.864,17.864,0,0,1,9.062,4.969,28.841,28.841,0,0,1,6.366,10.962,62.035,62.035,0,0,1,2.712,12.358c.487,3.865.682,7.356.779,10.3s0,5.31,0,6.951a12.031,12.031,0,0,1-.162,2.533,15.723,15.723,0,0,1-.162-2.533c0-1.624-.146-4.011-.309-6.918s-.422-6.4-.942-10.215a66.063,66.063,0,0,0-2.744-12.2,28.631,28.631,0,0,0-6.122-10.685,17.6,17.6,0,0,0-8.639-4.872A32.854,32.854,0,0,0,201.75,393.759Z" transform="translate(84.686 21.019)" fill="#263238"/>
      <path id="Path_2574" data-name="Path 2574" d="M300.688,368.8c0,.244-52.583.422-117.411.422S65.85,369.046,65.85,368.8s52.567-.422,117.427-.422S300.688,368.575,300.688,368.8Z" transform="translate(-0.107 5.556)" fill="#263238"/>
      <path id="Path_2575" data-name="Path 2575" d="M81.452,392.336a15.853,15.853,0,0,1-2.42.276,23.945,23.945,0,0,0-2.793.455c-.536.1-1.088.309-1.624.455a9.914,9.914,0,0,0-1.868.666,18.969,18.969,0,0,0-7.649,5.684,28.273,28.273,0,0,0-5.164,10.637,55.457,55.457,0,0,0-1.624,11.822,89.422,89.422,0,0,0,.162,9.744c.195,2.793.455,5.034.65,6.593a19.3,19.3,0,0,1,.26,2.42,10.05,10.05,0,0,1-.585-2.371c-.292-1.543-.65-3.784-.909-6.593a76.323,76.323,0,0,1-.357-9.857,53.33,53.33,0,0,1,1.624-12.017,28.256,28.256,0,0,1,5.262-10.913,19.178,19.178,0,0,1,8.12-5.765,10.144,10.144,0,0,1,1.932-.6,15.862,15.862,0,0,1,1.754-.406c1.1-.13,2.062-.325,2.858-.325a11.789,11.789,0,0,1,2.371.1Z" transform="translate(-5.316 20.429)" fill="#263238"/>
      <path id="Path_2576" data-name="Path 2576" d="M101.195,438.473a1.9,1.9,0,0,1-.162-.374c-.114-.309-.26-.682-.422-1.137-.374-1.007-.909-2.485-1.478-4.433-1.218-3.865-2.761-9.516-4.6-16.516s-3.962-15.362-6.333-24.6-5.067-19.487-8.266-29.978a138.556,138.556,0,0,0-5.359-15.151,30.857,30.857,0,0,0-1.624-3.475c-.552-1.121-1.169-2.225-1.8-3.248-1.25-2.176-2.452-4.3-3.686-6.333a32.35,32.35,0,0,0-8.786-10.02,25.577,25.577,0,0,0-10.848-4.076,29.783,29.783,0,0,0-16.58,2.387,36.91,36.91,0,0,0-5.391,3.167,2.661,2.661,0,0,1,.292-.276l.958-.763a23.334,23.334,0,0,1,3.995-2.42,29.652,29.652,0,0,1,16.808-2.7,26.161,26.161,0,0,1,11.156,4.092,32.479,32.479,0,0,1,9.045,10.2c1.283,2.03,2.485,4.174,3.735,6.333.633,1.072,1.267,2.176,1.835,3.345a33.252,33.252,0,0,1,1.624,3.524A158.058,158.058,0,0,1,80.7,361.239c3.248,10.588,5.862,20.77,8.217,30.043s4.433,17.49,6.187,24.586,3.248,12.683,4.336,16.564c.536,1.965,1.007,3.459,1.315,4.466l.357,1.169a1.528,1.528,0,0,1,.081.406Z" transform="translate(-25.058 -25.709)" fill="#263238"/>
      <path id="Path_2577" data-name="Path 2577" d="M261.072,349.942h-82.48l-41.67-.081-23.141-.13c-3.995,0-8.038,0-12.115.211a20.789,20.789,0,0,0-2.972.325,20.072,20.072,0,0,0-2.761,1.283c-1.819.974-3.589,2.062-5.359,3.248-3.54,2.257-7.032,4.709-10.442,7.324a93.564,93.564,0,0,0-9.857,8.493,21.4,21.4,0,0,0-3.962,5.132,4.466,4.466,0,0,0-.39,1.445,9.566,9.566,0,0,0,.309,1.543l.8,3.248c1.072,4.368,2.225,8.753,3.378,13.186s2.4,8.883,3.621,13.381c.65,2.241,1.283,4.482,1.932,6.739.341,1.121.682,2.241,1.072,3.248,0,.146.1.195.13.309s0,.114,0,.114h0s.536.081.828.1c.568,0,1.169.1,1.754.13,9.435.455,19.049.536,28.76.7,38.877.455,75.919.5,109.616.422,16.84,0,32.852-.146,47.825-.341,7.486-.114,14.713-.227,21.663-.487,1.738,0,3.459-.146,5.132-.276l1.267-.114a1.2,1.2,0,0,0,.585-.1.6.6,0,0,0,.39-.227,6.853,6.853,0,0,0,1.153-2.062,81.331,81.331,0,0,0,2.777-9.24c1.624-6.171,2.826-12.1,3.995-17.717.292-1.413.585-2.793.861-4.157a15.9,15.9,0,0,0,.568-3.979,13.836,13.836,0,0,0-3.54-6.723,73.531,73.531,0,0,0-10.377-9.451c-3.41-2.68-6.609-5-9.484-7.113a56.835,56.835,0,0,0-7.762-5.343,27.458,27.458,0,0,0-6.5-2.306,27.751,27.751,0,0,0-4.206-.6h0a24.109,24.109,0,0,1,4.238.52,26.578,26.578,0,0,1,6.5,2.257,52.5,52.5,0,0,1,7.844,5.294c2.891,2.095,6.106,4.4,9.549,7.048a74.7,74.7,0,0,1,10.474,9.468,14.388,14.388,0,0,1,3.686,6.983,15.8,15.8,0,0,1-.552,4.125c-.276,1.38-.568,2.761-.844,4.157-1.169,5.635-2.4,11.579-3.946,17.766a82.28,82.28,0,0,1-2.842,9.386,7.407,7.407,0,0,1-1.3,2.29,1.2,1.2,0,0,1-.682.39,4.54,4.54,0,0,1-.65.114l-1.283.13c-1.705.13-3.427.211-5.164.276-6.967.276-14.193.406-21.7.536-14.973.227-30.985.357-47.825.422-33.7.114-70.739.1-109.632-.357-9.744-.162-19.325-.244-28.792-.7a8.278,8.278,0,0,1-1.786-.13l-.926-.13a2.109,2.109,0,0,1-.406-.162c-.1-.081-.1-.179-.162-.26a2.7,2.7,0,0,1-.227-.5c-.422-1.137-.763-2.257-1.088-3.378-.65-2.257-1.3-4.515-1.932-6.756l-3.621-13.4c-1.169-4.433-2.306-8.834-3.378-13.2l-.8-3.248a8.655,8.655,0,0,1-.325-1.754,4.872,4.872,0,0,1,.471-1.77,21.971,21.971,0,0,1,4.109-5.359,98.356,98.356,0,0,1,9.955-8.558c3.443-2.614,6.934-5.067,10.507-7.34,1.786-1.137,3.573-2.225,5.424-3.248a21.119,21.119,0,0,1,2.874-1.332,18.366,18.366,0,0,1,3.248-.357c4.173-.292,8.233-.292,12.293-.292l23.206.195,41.67.179,60.362.341,16.4.13h4.271Z" transform="translate(-0.7 -6.536)" fill="#263238"/>
      <path id="Path_2578" data-name="Path 2578" d="M207.31,437.987a1.528,1.528,0,0,1,.081-.406c.1-.309.195-.7.341-1.153.292-1.023.763-2.517,1.218-4.466,1.039-3.881,2.257-9.565,3.7-16.613s3.1-15.46,4.953-24.781,4.011-19.487,6.821-30.189A126.54,126.54,0,0,1,229.4,345.1c.536-1.2,1.153-2.338,1.721-3.491a35.8,35.8,0,0,1,1.949-3.248,68.1,68.1,0,0,1,4.238-5.992,39.2,39.2,0,0,1,10-9.159,27.769,27.769,0,0,1,11.14-3.914,29.7,29.7,0,0,1,16.71,2.712,26.971,26.971,0,0,1,3.979,2.42l.942.747c.195.179.309.276.292.292a37.447,37.447,0,0,0-5.359-3.248,30.026,30.026,0,0,0-16.483-2.42,27.607,27.607,0,0,0-10.864,3.93,38.86,38.86,0,0,0-9.744,9.045,67.759,67.759,0,0,0-4.173,5.944c-.65,1.056-1.348,2.111-1.916,3.248s-1.153,2.241-1.624,3.41a128.573,128.573,0,0,0-4.872,15.167c-2.793,10.6-4.872,20.835-6.869,30.14s-3.605,17.7-5.132,24.733-2.842,12.715-3.962,16.58c-.52,1.949-1.039,3.427-1.38,4.433-.179.455-.309.828-.422,1.137a1.9,1.9,0,0,1-.26.422Z" transform="translate(88.155 -25.222)" fill="#263238"/>
      <path id="Path_2579" data-name="Path 2579" d="M222.7,263.62c.227,0-7.178,31.375-16.548,69.959S189,403.409,188.772,403.327s7.178-31.375,16.548-69.959S222.469,263.571,222.7,263.62Z" transform="translate(76.585 -59.807)" fill="#263238"/>
      <path id="Path_2580" data-name="Path 2580" d="M66.48,269.76a7.6,7.6,0,0,1,.471,1.3c.276.926.666,2.16,1.153,3.735,1.007,3.345,2.4,8.039,4.125,13.8,3.427,11.676,8.12,27.834,12.992,45.73s9.24,34.1,12.293,45.925c1.478,5.846,2.68,10.588,3.54,13.966.374,1.624.682,2.874.909,3.816a7.972,7.972,0,0,1,.26,1.348,7.909,7.909,0,0,1-.422-1.315c-.276-.926-.617-2.176-1.072-3.768-.926-3.362-2.209-8.12-3.8-13.885-3.248-11.806-7.649-27.98-12.521-45.86L71.66,288.76l-3.849-13.868c-.422-1.624-.763-2.858-1.023-3.784a8.72,8.72,0,0,1-.309-1.348Z" transform="translate(0.286 -55.977)" fill="#263238"/>
      <path id="Path_2581" data-name="Path 2581" d="M105.551,163.343a9.955,9.955,0,0,1,9.175-9.062c-2.761-4.531-.455-11.075,4.238-13.56a13.349,13.349,0,0,1,14.762,2.338,10.231,10.231,0,0,1,18.984,5.635c4.3-1.38,9.175,2.16,10.02,6.609a12.033,12.033,0,0,1-5.343,11.644c2.192,1.624,1.965,5.294.179,7.389a12.261,12.261,0,0,1-7.34,3.459l-17.116,5.083c-4.109,2.29-9.159,3.459-13.544,1.77s-7.551-6.869-5.895-11.27A9.971,9.971,0,0,1,105.551,163.343Z" transform="translate(24.662 -138.115)" fill="#263238"/>
      <path id="Path_2582" data-name="Path 2582" d="M105.64,156.108a3.248,3.248,0,0,1,.6-.568,6.9,6.9,0,0,1,2.16-1.088,7.957,7.957,0,0,1,3.832-.162,7.373,7.373,0,0,1,4.4,2.6l-.5.162a10.15,10.15,0,0,1,2.7-6.22,12.991,12.991,0,0,1,6.869-3.962,15.2,15.2,0,0,1,8.785.991,22.1,22.1,0,0,1,7.795,5.538,10.685,10.685,0,0,1,2.4,4.076,5.456,5.456,0,0,1-.7,4.6,4.223,4.223,0,0,1-1.77,1.624,3.426,3.426,0,0,1-2.339.195,4.368,4.368,0,0,1-3.021-3.1,5.083,5.083,0,0,1,.763-4.027,6.658,6.658,0,0,1,2.972-2.452,11.757,11.757,0,0,1,6.691-.552,15.184,15.184,0,0,1,8.4,4.612,12.648,12.648,0,0,1,1.624,2.095,3.249,3.249,0,0,1,.406.812,27.311,27.311,0,0,0-2.225-2.68,15.412,15.412,0,0,0-8.266-4.255,11.368,11.368,0,0,0-6.317.6,5.83,5.83,0,0,0-2.615,2.209,4.385,4.385,0,0,0-.65,3.443,3.638,3.638,0,0,0,2.468,2.517,3,3,0,0,0,3.248-1.429,4.612,4.612,0,0,0,.568-3.914,9.955,9.955,0,0,0-2.225-3.735c-4.238-4.693-10.442-7.438-15.8-6.333a12.326,12.326,0,0,0-6.5,3.654,9.63,9.63,0,0,0-2.631,5.8v.747l-.455-.585a6.9,6.9,0,0,0-4.044-2.517,7.827,7.827,0,0,0-3.654,0A9.743,9.743,0,0,0,105.64,156.108Z" transform="translate(24.719 -132.812)" fill="#455a64"/>
      <path id="Path_2583" data-name="Path 2583" d="M124.928,174.82a1.234,1.234,0,0,1-.179.422,3.443,3.443,0,0,1-.877,1.023,4.6,4.6,0,0,1-1.981.909,4.222,4.222,0,0,1-2.923-.5l-1.624-.958,1.754.536,1.851.552,2.306.7-2.4-.179a4.644,4.644,0,0,1-2.907-7.909l.552.455a10.02,10.02,0,0,1-17.733-2.939,9.435,9.435,0,0,1,.7-7.892,5.05,5.05,0,0,1,6.837-2l-.471.633a7.113,7.113,0,0,1-2.387-4.872,7.811,7.811,0,0,1,1.088-4.791,6.252,6.252,0,0,1,3.41-2.712,7.356,7.356,0,0,1,3.719-.211,7.47,7.47,0,0,1,4.433,2.615,4.433,4.433,0,0,1,.861,1.624,7.934,7.934,0,0,0-1.056-1.462,7.373,7.373,0,0,0-4.336-2.306,7,7,0,0,0-3.426.276,5.8,5.8,0,0,0-3.053,2.517,7.356,7.356,0,0,0-.926,4.385,6.5,6.5,0,0,0,2.176,4.32l-.471.617a4.271,4.271,0,0,0-5.7,1.786,8.672,8.672,0,0,0-.585,7.178,9.305,9.305,0,0,0,7.892,6.5,9.419,9.419,0,0,0,8.444-3.735l.536.455a4.092,4.092,0,0,0-.828,4.515,4.157,4.157,0,0,0,3.248,2.355l-.114.52-1.835-.617.211-.422a3.686,3.686,0,0,0,2.6.536,4.433,4.433,0,0,0,1.9-.731,6.853,6.853,0,0,0,1.3-1.186Z" transform="translate(21.33 -133.856)" fill="#263238"/>
      <path id="Path_2584" data-name="Path 2584" d="M152.5,168.066a19.8,19.8,0,0,0,1.445-2.127,10.02,10.02,0,0,0,1.007-6.674,9.386,9.386,0,0,0-9.484-7.324A3.069,3.069,0,0,0,143,153a1.332,1.332,0,0,0,.455,2.127,4.027,4.027,0,0,0,2.956-.227,7.925,7.925,0,0,0,4.433-4.255,6.5,6.5,0,0,0-.422-5.619,9.549,9.549,0,0,0-8.363-4.791,10.149,10.149,0,0,0-6.366,2.306c-1.267,1.056-1.754,1.868-1.819,1.8s0-.211.325-.585a8.717,8.717,0,0,1,1.283-1.462,10.084,10.084,0,0,1,6.577-2.663,10.409,10.409,0,0,1,4.872,1.088,9.6,9.6,0,0,1,4.19,3.914,7.21,7.21,0,0,1,.5,6.317,8.607,8.607,0,0,1-4.872,4.709,4.872,4.872,0,0,1-3.605.227,2.1,2.1,0,0,1-1.25-1.527,2.452,2.452,0,0,1,.455-1.851,3.881,3.881,0,0,1,3.1-1.4,10.02,10.02,0,0,1,10.117,8.022,9.873,9.873,0,0,1-1.315,6.95,8.558,8.558,0,0,1-1.185,1.543,2.861,2.861,0,0,1-.568.438Z" transform="translate(42.318 -137.171)" fill="#263238"/>
      <path id="Path_2585" data-name="Path 2585" d="M113.894,170.347c1.932-3.686,7.243-4.157,11.075-2.517a7.535,7.535,0,0,1,11.692-7.162c.909.617,1.819,1.478,2.923,1.4s1.949-1.137,2.777-1.932a7.633,7.633,0,1,1,9.744,11.676l-.52-2.03a43.278,43.278,0,0,1-23.45,11.368,16.483,16.483,0,0,1-10.815-1.364C114.154,177.931,112.173,173.627,113.894,170.347Z" transform="translate(29.473 -125.762)" fill="#fead54"/>
      <path id="Path_2586" data-name="Path 2586" d="M109.121,201.107a13.755,13.755,0,0,1,.617-15.882,13.171,13.171,0,0,1,5.245-3.865,16.629,16.629,0,0,1,3.768-9.565c3.41-3.816,9.955-5.067,13.69-1.624a12.439,12.439,0,0,1,17.068-5.229c4.872-5.781,15.314-5.408,19.828.7a9.208,9.208,0,0,1,14.274,9.045A10.052,10.052,0,0,1,194.638,188.2a7.421,7.421,0,0,1,4.4,12.992A10.556,10.556,0,0,1,196.8,216.4a8.785,8.785,0,0,1-5.862,10.117l-61.4,18.253c-10.312-.731-13.105-7.438-13.527-13.674a9.451,9.451,0,0,1-5.18-13.4,10.572,10.572,0,0,1-1.624-16.71Z" transform="translate(24.843 -123.946)" fill="#263238"/>
      <path id="Path_2587" data-name="Path 2587" d="M125.415,180.313l37.659-8.3c12.017-.909,19.487,14.063,19.958,26.1.455,13.381.471,29.718-1.4,39.64-3.768,19.877-19.195,21.956-19.195,21.956s0,.292-.341,6.236l-.276,9.744a16.727,16.727,0,0,1-3.995,10.653c-5.927,6.691-15.915,6.95-27.315,1.819-6.609-2.972-6.2-6.723-7.015-15.947l-5.359-87.205A10.426,10.426,0,0,1,125.415,180.313Z" transform="translate(32.519 -116.988)" fill="#c17560"/>
      <path id="Path_2588" data-name="Path 2588" d="M155.232,200.068a2.566,2.566,0,0,1-2.566,2.517A2.42,2.42,0,0,1,150.1,200.2a2.566,2.566,0,0,1,2.55-2.517,2.468,2.468,0,0,1,2.582,2.387Z" transform="translate(52.46 -100.951)" fill="#263238"/>
      <path id="Path_2589" data-name="Path 2589" d="M159.123,195.444c-.325.325-2.241-1.169-5-1.234s-4.872,1.25-5.115.893.195-.747,1.1-1.364a7.064,7.064,0,0,1,4.109-1.137,6.739,6.739,0,0,1,3.962,1.413C159.009,194.7,159.285,195.3,159.123,195.444Z" transform="translate(51.735 -104.121)" fill="#263238"/>
      <path id="Path_2590" data-name="Path 2590" d="M140.442,199.595a2.566,2.566,0,0,1-2.55,2.517,2.468,2.468,0,0,1-2.582-2.387,2.582,2.582,0,0,1,2.55-2.533,2.452,2.452,0,0,1,2.582,2.4Z" transform="translate(43.232 -101.257)" fill="#263238"/>
      <path id="Path_2591" data-name="Path 2591" d="M143.025,195.444c-.325.325-2.225-1.169-4.986-1.234s-4.872,1.25-5.132.893.195-.747,1.1-1.364a7.1,7.1,0,0,1,4.109-1.137,6.739,6.739,0,0,1,3.962,1.413C142.846,194.7,143.187,195.3,143.025,195.444Z" transform="translate(41.688 -104.121)" fill="#263238"/>
      <path id="Path_2592" data-name="Path 2592" d="M144.158,214.62a18.14,18.14,0,0,1,4.515-.682c.715,0,1.38-.162,1.51-.65a3.589,3.589,0,0,0-.406-2.111c-.617-1.721-1.25-3.54-1.933-5.424-2.679-7.746-4.6-14.1-4.271-14.193s2.728,6.074,5.408,13.8c.633,1.916,1.25,3.735,1.835,5.473a4.093,4.093,0,0,1,.292,2.777,1.8,1.8,0,0,1-1.2,1.007,5.635,5.635,0,0,1-1.2.13,17.863,17.863,0,0,1-4.547-.13Z" transform="translate(48.365 -104.769)" fill="#263238"/>
      <path id="Path_2593" data-name="Path 2593" d="M155.7,229.051a50.813,50.813,0,0,1-26.616-7.941s6.22,14.21,26.324,12.992Z" transform="translate(39.345 -86.331)" fill="#6f4439"/>
      <path id="Path_2594" data-name="Path 2594" d="M138.393,209.808a3.979,3.979,0,0,1,3.378-1.705,5.164,5.164,0,0,1,4.677,2.485,3.118,3.118,0,0,1,.146,2.338c-.179.406,0,.211-.357.471a9.224,9.224,0,0,1-3.8,2.209,3.946,3.946,0,0,1-4.092-1.624,4.027,4.027,0,0,1,.049-4.173Z" transform="translate(44.776 -94.451)" fill="#6f4439"/>
      <path id="Path_2595" data-name="Path 2595" d="M138.782,206.84c.455,0,.39,2.988,2.907,5.18s5.716,1.932,5.732,2.355-.731.568-2.079.568a7.486,7.486,0,0,1-4.872-1.786,6.5,6.5,0,0,1-2.241-4.336C138.23,207.555,138.571,206.824,138.782,206.84Z" transform="translate(45.054 -95.235)" fill="#263238"/>
      <path id="Path_2596" data-name="Path 2596" d="M144.194,187.669c-.244.763-3.021.487-6.252.974s-5.83,1.429-6.285.779c-.195-.325.244-1.039,1.283-1.8a10.653,10.653,0,0,1,4.612-1.77,10.783,10.783,0,0,1,4.872.438C143.691,186.743,144.308,187.312,144.194,187.669Z" transform="translate(40.924 -108.396)" fill="#263238"/>
      <path id="Path_2597" data-name="Path 2597" d="M158.895,189.5c-.568.6-2.663-.162-5.213-.341s-4.742.162-5.213-.52c-.195-.325.179-.942,1.153-1.478a7.925,7.925,0,0,1,4.3-.8,7.8,7.8,0,0,1,4.109,1.494C158.895,188.54,159.106,189.206,158.895,189.5Z" transform="translate(51.411 -108.034)" fill="#263238"/>
      <path id="Path_2598" data-name="Path 2598" d="M146,170.64a4.064,4.064,0,0,1,0,.438h0Z" transform="translate(49.902 -117.821)" fill="#263238"/>
      <path id="Path_2599" data-name="Path 2599" d="M125.89,200.26a2.6,2.6,0,0,0-2.062-2.712c-3.248-.7-8.964-.7-9.533,7.438-.8,11.254,10.669,9.744,10.718,9.4S125.63,204.563,125.89,200.26Z" transform="translate(30.095 -101.208)" fill="#c17560"/>
      <path id="Path_2600" data-name="Path 2600" d="M120.809,208.458a5.132,5.132,0,0,1-.552.244,1.965,1.965,0,0,1-1.478,0,4.872,4.872,0,0,1-1.932-4.515,6.349,6.349,0,0,1,.747-2.777,2.257,2.257,0,0,1,1.624-1.4,1.007,1.007,0,0,1,1.121.617c.13.325,0,.552.1.568s.26-.179.195-.65a1.3,1.3,0,0,0-.39-.731,1.462,1.462,0,0,0-1.056-.357,2.777,2.777,0,0,0-2.176,1.624,6.61,6.61,0,0,0-.909,3.1c0,2.273.926,4.482,2.533,5.067a2.079,2.079,0,0,0,1.8-.179A1.6,1.6,0,0,0,120.809,208.458Z" transform="translate(31.246 -99.841)" fill="#6f4439"/>
      <path id="Path_2601" data-name="Path 2601" d="M179.566,205.9a7,7,0,0,1-6.983-8.428,7.292,7.292,0,0,1-7.178-9.24,9.062,9.062,0,0,1-12.813-6.09,2.6,2.6,0,0,1-1.413,2.176,4.872,4.872,0,0,1-2.663.471,8.477,8.477,0,0,1-7-4.872,7.616,7.616,0,0,1-9.289,2.988c-1.2-.52-2.355-1.624-2.16-2.923a3.41,3.41,0,0,1,.585-1.283c3.427-5.18,9.646-8.12,15.817-8.574a44.885,44.885,0,0,1,18.253,2.939,24.084,24.084,0,0,1,9.549,5.164c2.777,2.761,4.206,6.5,5.554,10.28a45.469,45.469,0,0,1,2.42,8.217,14.924,14.924,0,0,1-.861,8.428h-.779" transform="translate(39.948 -118.178)" fill="#263238"/>
      <path id="Path_2602" data-name="Path 2602" d="M142.7,179.151a10.6,10.6,0,0,1-8.721,10.068,5.245,5.245,0,0,1-2.891,10.052,12.7,12.7,0,0,1,1.315,5.115,4.385,4.385,0,0,1-2.728,4.157,5,5,0,0,1,1.283,4.433,4.157,4.157,0,0,1-4.092,3.248c-1.624,0-3-2.046-4.644-2.355a7.957,7.957,0,0,0-6.9,2.095l-2.062-21,2.533-16.84,9.841-7.178,18.935,3.329Z" transform="translate(29.474 -117.628)" fill="#263238"/>
      <path id="Path_2603" data-name="Path 2603" d="M112,178.176a14.765,14.765,0,0,0,2-.227,5.457,5.457,0,0,0,3.751-3.248l.471-1.25.179,1.332a6.5,6.5,0,0,0,2.42,4.125,6.009,6.009,0,0,0,5.327,1.055,6.268,6.268,0,0,0,3.118-1.884l.374-.422.292.471a8.818,8.818,0,0,0,4.3,3.443,8.672,8.672,0,0,0,4.45.406,13.624,13.624,0,0,0,3.849-1.478,3.3,3.3,0,0,1-.844.763,8.412,8.412,0,0,1-2.907,1.234,8.72,8.72,0,0,1-4.774-.244,9.272,9.272,0,0,1-4.774-3.686h.666a7.113,7.113,0,0,1-3.524,2.176,6.788,6.788,0,0,1-6.057-1.267,7.064,7.064,0,0,1-2.582-4.661l.65.081a5.716,5.716,0,0,1-4.3,3.443,3.345,3.345,0,0,1-2.079-.162Z" transform="translate(28.688 -116.068)" fill="#455a64"/>
      <path id="Path_2604" data-name="Path 2604" d="M133.432,162.8a39.081,39.081,0,0,0-4.174,2.273,8.769,8.769,0,0,0-3.085,3.881,5.392,5.392,0,0,0,.877,5.57,4.108,4.108,0,0,0,1.624,1.137l.5.179-.292.455a5.278,5.278,0,0,0,0,4.986,9.647,9.647,0,0,0,2.761,3.248c1.981,1.526,3.362,2.273,3.248,2.4s-.39-.1-1.023-.422a17.017,17.017,0,0,1-2.615-1.624,9.257,9.257,0,0,1-3.086-3.443,5.96,5.96,0,0,1,0-5.765l.211.633a5,5,0,0,1-1.981-1.364,6.057,6.057,0,0,1-.974-6.5,8.9,8.9,0,0,1,3.459-4.092,12.99,12.99,0,0,1,3.248-1.51A6.588,6.588,0,0,1,133.432,162.8Z" transform="translate(36.73 -122.729)" fill="#455a64"/>
      <path id="Path_2605" data-name="Path 2605" d="M172.683,210.548a1.563,1.563,0,0,1-.39.211,5.472,5.472,0,0,1-1.25.292,6.5,6.5,0,0,1-4.482-1.332,6.366,6.366,0,0,1,.292-10,4,4,0,0,1,2.225-.78,2.842,2.842,0,0,1,2.257,1.088,2.436,2.436,0,0,1,.146,2.517,4.125,4.125,0,0,1-1.624,1.705,5.927,5.927,0,0,1-4.206.552,7.129,7.129,0,0,1-5.18-4.531,9.159,9.159,0,0,1-.422-4.644,4.012,4.012,0,0,1,.5-1.624s-.1.6-.179,1.624a9.6,9.6,0,0,0,.666,4.4,7.08,7.08,0,0,0,1.738,2.468,6.707,6.707,0,0,0,3.053,1.526,5.229,5.229,0,0,0,3.621-.5c1.072-.585,1.949-2.03,1.218-3a1.981,1.981,0,0,0-1.624-.747,3.07,3.07,0,0,0-1.754.617A5.505,5.505,0,0,0,165.2,203.4a5.6,5.6,0,0,0,1.705,5.846,6.285,6.285,0,0,0,4.092,1.445C172.1,210.71,172.667,210.467,172.683,210.548Z" transform="translate(58.588 -103.246)" fill="#263238"/>
      <path id="Path_2606" data-name="Path 2606" d="M119.427,202.437a4.142,4.142,0,0,1-1.462.779,12.326,12.326,0,0,1-4.433.763,17.945,17.945,0,0,1-6.593-1.218,5.083,5.083,0,0,1-2.874-2.939,3.248,3.248,0,0,1,0-2.306,3.053,3.053,0,0,1,1.738-1.624,2.306,2.306,0,0,1,1.478,0l-.292.779a6.853,6.853,0,0,1-3.686-6.723,5.878,5.878,0,0,1,1.3-3.248,6.739,6.739,0,0,1,6.593-2.241,3.053,3.053,0,0,1,1.413.65,9.361,9.361,0,0,0-1.478-.325,6.5,6.5,0,0,0-3.881.633A5.505,5.505,0,0,0,104,190a6.155,6.155,0,0,0,3.248,5.895l-.309.78a1.624,1.624,0,0,0-.958,0,2.29,2.29,0,0,0-1.25,1.185,2.5,2.5,0,0,0,0,1.721,4.287,4.287,0,0,0,2.42,2.485,17.862,17.862,0,0,0,6.268,1.332A16.759,16.759,0,0,0,119.427,202.437Z" transform="translate(23.242 -109.296)" fill="#263238"/>
      <path id="Path_2607" data-name="Path 2607" d="M160.88,305.626c.5.763,18.627,25.106,18.627,25.106l21.939-20.364L187.4,275.014l-8.461-14.4Z" transform="translate(59.186 -61.686)" fill="#c17560"/>
      <g id="Group_179" data-name="Group 179" transform="translate(116.442 352.127)" opacity="0.3">
        <path id="Path_2608" data-name="Path 2608" d="M129.338,465.3l-9.143-.179-3.248-79.492L97.07,377.182l36.116-22.232,96.283,68.076L248.7,465.3Z" transform="translate(-97.07 -354.95)"/>
      </g>
      <path id="Path_2609" data-name="Path 2609" d="M156,412.588l16.986,32.186,25.236-14.047L187.131,395.65Z" transform="translate(56.141 22.571)" fill="#c17560"/>
      <path id="Path_2610" data-name="Path 2610" d="M164.729,429.337s25.983.8,26.5-15.947l1.4,3.378,38.747,25.463c6.155,4.385,5.668,9.4,4.044,11.985a5.879,5.879,0,0,1-5.716,2.712c-12.05-1.526-56.367-7.405-58.592-10.978l-2.306-3.118c-3.7-4.368-4.872-9.744-3.67-11.692Z" transform="translate(61.557 33.64)" fill="#263238"/>
      <g id="Group_180" data-name="Group 180" transform="translate(230.362 476.472)" opacity="0.6">
        <path id="Path_2611" data-name="Path 2611" d="M233.168,443.764,167.22,431.52l1.445,1.949c1.38,2.273,2.923,2.42,4.872,3.053,5.96,1.835,20.868,4.774,54.369,9.208a5.879,5.879,0,0,0,5.2-1.965Z" transform="translate(-167.22 -431.52)" fill="#fff"/>
      </g>
      <g id="Group_181" data-name="Group 181" transform="translate(231.693 468.091)" opacity="0.6">
        <path id="Path_2612" data-name="Path 2612" d="M171.32,426.36a3.556,3.556,0,0,1,3.556,3.15,3.427,3.427,0,0,1-3.1,3.556,3.751,3.751,0,0,1-3.735-3.378,3.557,3.557,0,0,1,3.621-3.329" transform="translate(-168.04 -426.36)" fill="#fff"/>
      </g>
      <path id="Path_2613" data-name="Path 2613" d="M189.155,434.036c.357,0-.39-3.248,1.4-6.593s4.709-4.628,4.563-4.953-.893,0-2.095.585a9.37,9.37,0,0,0-4.6,8.915C188.587,433.337,189.009,434.084,189.155,434.036Z" transform="translate(76.349 39.237)" fill="#fff"/>
      <path id="Path_2614" data-name="Path 2614" d="M193.464,434.713c.374,0,.747-2.566,2.615-5.018s4.222-3.573,4.092-3.914-3,.325-5.1,3.15S193.139,434.762,193.464,434.713Z" transform="translate(79.396 41.32)" fill="#fff"/>
      <path id="Path_2615" data-name="Path 2615" d="M183.777,432.573c.325,0,.812-3.41,3.053-6.95s5.1-5.505,4.872-5.781-3.491,1.38-5.846,5.213S183.5,432.605,183.777,432.573Z" transform="translate(73.396 37.647)" fill="#fff"/>
      <path id="Path_2616" data-name="Path 2616" d="M189.139,425.966a7.373,7.373,0,0,0-1.543-1.526,15.086,15.086,0,0,0-5.326-2.631,6.739,6.739,0,0,0-4.3-.1,2.387,2.387,0,0,0-1.445,2.306,3.865,3.865,0,0,0,1.283,2.436,8.3,8.3,0,0,0,10.6,0,9.614,9.614,0,0,0,2.793-10.361,3.345,3.345,0,0,0-1.932-2.03,2.322,2.322,0,0,0-2.55.942,8.119,8.119,0,0,0-1.153,4.109,16.629,16.629,0,0,0,.585,5.911,5.116,5.116,0,0,0,.893,1.981,26.469,26.469,0,0,1-.536-7.827,7.6,7.6,0,0,1,1.088-3.557,1.25,1.25,0,0,1,1.38-.52,2.306,2.306,0,0,1,1.185,1.413,8.607,8.607,0,0,1-2.517,8.964,7.227,7.227,0,0,1-9,.179,2.793,2.793,0,0,1-.958-1.624,1.25,1.25,0,0,1,.763-1.283,5.927,5.927,0,0,1,3.638,0A22.916,22.916,0,0,1,189.139,425.966Z" transform="translate(68.943 34.006)" fill="#fff"/>
      <path id="Path_2617" data-name="Path 2617" d="M122.31,432.12c.13,0,.309,39.673.309,39.673s27.493,4.3,27.493,3.605,8.12-38.6,8.12-38.6Z" transform="translate(35.12 45.326)" fill="#c17560"/>
      <path id="Path_2618" data-name="Path 2618" d="M159.688,452S139.7,467.07,129.9,453.478l-.374,3.621-17.993,42.742c-2.68,7.08.52,10.978,3.248,12.212a5.879,5.879,0,0,0,6.268-.926c9.143-7.99,42.661-37.562,42.531-41.768l.179-3.881c.633-5.684-1.348-10.815-3.459-11.741Z" transform="translate(27.769 57.73)" fill="#263238"/>
      <g id="Group_182" data-name="Group 182" transform="translate(143.659 523.176)" opacity="0.6">
        <path id="Path_2619" data-name="Path 2619" d="M113.83,507.2l47.939-46.916-.114,2.436c.114,2.647-1.072,3.638-2.4,5.278-3.914,4.872-14.615,15.606-40.014,37.935a5.862,5.862,0,0,1-5.408,1.267Z" transform="translate(-113.83 -460.28)" fill="#fff"/>
      </g>
      <g id="Group_183" data-name="Group 183" transform="translate(181.508 518.354)" opacity="0.6">
        <path id="Path_2620" data-name="Path 2620" d="M138.733,457.748a3.556,3.556,0,0,0-1.2,4.6,3.427,3.427,0,0,0,4.547,1.234,3.751,3.751,0,0,0,1.234-4.872,3.557,3.557,0,0,0-4.872-.747" transform="translate(-137.137 -457.311)" fill="#fff"/>
      </g>
      <path id="Path_2621" data-name="Path 2621" d="M128.648,473.411c-.325.13-1.478-2.923-4.872-4.709s-6.5-1.218-6.5-1.624.7-.552,2.046-.682a9.419,9.419,0,0,1,8.8,4.872C128.745,472.518,128.794,473.363,128.648,473.411Z" transform="translate(31.982 66.702)" fill="#fff"/>
      <path id="Path_2622" data-name="Path 2622" d="M125.472,476.35c-.276.227-2.03-1.721-4.872-2.712s-5.505-.617-5.57-.974,2.663-1.4,5.976-.211S125.781,476.2,125.472,476.35Z" transform="translate(30.578 70.146)" fill="#fff"/>
      <path id="Path_2623" data-name="Path 2623" d="M132.8,468.765c-.244.227-2.582-2.387-6.5-4.076s-7.308-1.738-7.291-2.062,3.654-.8,7.746,1.072S133.041,468.635,132.8,468.765Z" transform="translate(33.061 64.171)" fill="#fff"/>
      <path id="Path_2624" data-name="Path 2624" d="M126.358,465.463a5.23,5.23,0,0,1,.422-2.144,15.216,15.216,0,0,1,2.956-5.148,6.788,6.788,0,0,1,3.524-2.468,2.371,2.371,0,0,1,2.485,1.121,3.816,3.816,0,0,1,.292,2.728,8.331,8.331,0,0,1-8.834,5.862,9.743,9.743,0,0,1-8.12-7.064,3.362,3.362,0,0,1,.471-2.745,2.322,2.322,0,0,1,2.647-.65,8.3,8.3,0,0,1,3.248,2.761,16.612,16.612,0,0,1,2.809,5.245,4.871,4.871,0,0,1,.406,2.127,26.161,26.161,0,0,0-3.9-6.8,7.746,7.746,0,0,0-2.891-2.339,1.234,1.234,0,0,0-1.445.341,2.306,2.306,0,0,0-.211,1.819,8.607,8.607,0,0,0,7.1,6.041,7.243,7.243,0,0,0,7.584-4.872,2.907,2.907,0,0,0-.13-1.916,1.283,1.283,0,0,0-1.364-.633,6.008,6.008,0,0,0-3.021,2.03,22.411,22.411,0,0,0-4.027,6.707Z" transform="translate(33.038 59.467)" fill="#fff"/>
      <path id="Path_2625" data-name="Path 2625" d="M100.15,243.906l34.281-13.186s8.639,14.924,23.872,13.625c15.574-1.332,15.07-12.7,15.07-12.7l43.083,12.228s2.842,58.251,0,67.345-10.913,20.949-10.913,20.949,8.526,19.8,8.737,25.252-2.176,4.092-2.176,4.092l-103.932,1.25Z" transform="translate(21.294 -80.335)" fill="#fead54"/>
      <g id="Group_184" data-name="Group 184" transform="translate(128.93 222.656)" opacity="0.3">
        <path id="Path_2626" data-name="Path 2626" d="M188.7,275.835c-1.332-1.2-3.427-.406-5.018.455-8.948,4.872-17.863,9.744-26.421,15.3-10.734,7.064-20.624,15.3-31.131,22.735q-9.289,6.5-19.146,12.2L104.76,330.4c2.355,3.849,7.259,5.586,11.757,5.245a28.046,28.046,0,0,0,12.488-4.872c17.652-11.173,30.075-29.231,47.711-40.42,4.368-2.761,9.224-5.278,11.871-9.744C189.481,279.115,189.968,276.988,188.7,275.835Z" transform="translate(-104.76 -275.223)"/>
      </g>
      <path id="Path_2627" data-name="Path 2627" d="M170.107,292.745a28.053,28.053,0,0,1-4.287.227c-2.631,0-6.285.195-10.3.487s-7.649.731-10.263,1.056a23.561,23.561,0,0,1-4.271.406,19.114,19.114,0,0,1,4.174-1.007,104.909,104.909,0,0,1,20.657-1.543,18.515,18.515,0,0,1,4.287.374Z" transform="translate(46.776 -41.887)" fill="#263238"/>
      <path id="Path_2628" data-name="Path 2628" d="M90.54,288.292s9.6,27.087,13.852,33.989,6.074,15.8,19.7,12.18,20.543-12.537,35.4-24.733S184,288.292,184,288.292l-10.491-12.7L130.05,295.405,119.69,272.67Z" transform="translate(15.298 -54.161)" fill="#c17560"/>
      <path id="Path_2629" data-name="Path 2629" d="M192.353,257.25l-29.864,15.833L138,288.56s12.131,10.75,15.557,10.491,8.12-5,8.12-5a3.557,3.557,0,0,0,2.014,1.932c1.494.52,3.248-1.234,3.248-1.234a10.507,10.507,0,0,0,3.248.7c1.494,0,3.248-5.716,4.109-9.484a6.707,6.707,0,0,0-.6-5.6l1.169-.666,1.624,2.874-2.55,9.11c-1.348,5,3.491,4.32,3.491,4.32s5.31-9.24,5.846-14.486-4.693-8.607-4.693-8.607,11.043-9.5,13.755-11.368S192.353,257.25,192.353,257.25Z" transform="translate(44.91 -63.782)" fill="#c17560"/>
      <path id="Path_2630" data-name="Path 2630" d="M113.163,306.582a8.119,8.119,0,0,1-.974-3,19.812,19.812,0,0,1,3.118-14.615,7.568,7.568,0,0,1,2.111-2.322,29.913,29.913,0,0,0-4.271,9.5A30.531,30.531,0,0,0,113.163,306.582Z" transform="translate(28.613 -45.444)" fill="#6f4439"/>
      <path id="Path_2631" data-name="Path 2631" d="M110.249,238.42S91.038,244.088,87.336,264.4c-2.209,12,3.134,51.284,3.134,51.284l37.107-13.8Z" transform="translate(12.965 -75.531)" fill="#fead54"/>
      <path id="Path_2632" data-name="Path 2632" d="M105.08,255a40.337,40.337,0,0,1,1.462,5.456c.877,3.621,1.981,8.2,3.248,13.268s2.468,9.841,3.41,13.2a52.064,52.064,0,0,1,1.462,5.44,5.586,5.586,0,0,1-.65-1.364c-.374-.909-.844-2.257-1.4-3.914-1.088-3.329-2.371-7.99-3.638-13.17s-2.274-9.906-2.956-13.333A34.786,34.786,0,0,1,105.08,255Z" transform="translate(24.37 -65.186)" fill="#263238"/>
      <path id="Path_2633" data-name="Path 2633" d="M114.989,312.231S90.467,341.023,91,364.2a87.206,87.206,0,0,0,10.945,39.981l32.479,1.916s2.874-15.509,14.5-15.509c2.517,0,44.9,81.2,44.9,81.2L235.355,452.8s-27.233-71.713-33.924-88.6S188.44,339.2,179.557,336.8l-9.938-25.171Z" transform="translate(15.582 -29.852)" fill="#263238"/>
      <path id="Path_2634" data-name="Path 2634" d="M119.329,329.644c0,.146-1.527-.276-3.995-.471a24.1,24.1,0,0,0-9.451,1.137,20.754,20.754,0,0,0-8.12,4.872c-1.738,1.738-2.55,3.069-2.68,2.972s.114-.374.471-.974a14.352,14.352,0,0,1,1.77-2.42,19.373,19.373,0,0,1,8.25-5.326,21.875,21.875,0,0,1,9.744-.909,10.637,10.637,0,0,1,4.011,1.121Z" transform="translate(18.111 -19.431)" fill="#455a64"/>
      <path id="Path_2635" data-name="Path 2635" d="M134.664,333.98a72.234,72.234,0,0,1-.422-11.14,72.237,72.237,0,0,1,.422-11.14,74.7,74.7,0,0,1,.422,11.14A74.7,74.7,0,0,1,134.664,333.98Z" transform="translate(42.53 -29.808)" fill="#455a64"/>
      <path id="Path_2636" data-name="Path 2636" d="M127.7,311.651a3.865,3.865,0,0,1-.422,1.3,20.168,20.168,0,0,1-1.8,3.248,24.635,24.635,0,0,1-21.014,11.01,20.892,20.892,0,0,1-3.7-.373,3.916,3.916,0,0,1-1.315-.39c0-.146,1.932.244,5.018.179a25.983,25.983,0,0,0,20.527-10.767C126.82,313.372,127.567,311.586,127.7,311.651Z" transform="translate(20.851 -29.84)" fill="#455a64"/>
      <path id="Path_2637" data-name="Path 2637" d="M202.8,311.26a67.1,67.1,0,0,1,16.743,33.421c3.362,20.121,3.573,46.363-2.16,56.075l-16.4,3.686-14.437,14.615L166.05,530.394l-46.412-6.382s-4.352-96.722-2.858-105.93,1.786-11.725,1.786-11.725-1.039-15.168,9.922-26.129a270.889,270.889,0,0,1,26.633-22.41l-1.429-45.925Z" transform="translate(31.475 -30.083)" fill="#263238"/>
      <path id="Path_2638" data-name="Path 2638" d="M189.32,326.952a6.5,6.5,0,0,1-1.526.633,24.363,24.363,0,0,1-4.368.974,24.652,24.652,0,0,1-14.486-2.339,19.134,19.134,0,0,1-3.508-2.42c-1.039-.877-2.014-1.754-2.923-2.615a59.531,59.531,0,0,1-4.482-4.872c-1.218-1.445-2.144-2.663-2.777-3.492a5.913,5.913,0,0,1-.909-1.364,53.584,53.584,0,0,1,4.125,4.45c1.267,1.4,2.777,3.02,4.58,4.709a32.853,32.853,0,0,0,6.3,4.872,25.545,25.545,0,0,0,14.015,2.5C187.062,327.618,189.271,326.774,189.32,326.952Z" transform="translate(55.105 -29.958)" fill="#455a64"/>
      <path id="Path_2639" data-name="Path 2639" d="M125.57,397.662a8.414,8.414,0,0,1,.244-1.624,11.612,11.612,0,0,1,.455-1.9,14.742,14.742,0,0,1,.942-2.55,15.8,15.8,0,0,1,4.612-5.992,18.416,18.416,0,0,1,9.549-3.865h.13v.13c9.614,17.863,25.09,46.607,43.846,81.2l-.52-.162,41.508-19.016-.211.536c-2.127-5.408-4.368-11.14-6.658-16.954l-22.394-57.114c-3.475-8.9-6.821-17.425-9.971-25.512a25.983,25.983,0,0,0-6.8-10.312,23.661,23.661,0,0,0-10.117-5.57h0a84.721,84.721,0,0,0-27.412-3.248,86.586,86.586,0,0,0-20.738,3.426,90.439,90.439,0,0,0-12.5,4.742c-1.38.65-2.42,1.218-3.118,1.624l-1.088.52s.341-.227,1.039-.6,1.624-.958,3.085-1.624a82.447,82.447,0,0,1,12.488-4.872,85.68,85.68,0,0,1,48.426-.455h0a24.359,24.359,0,0,1,10.474,5.7,26.794,26.794,0,0,1,7.015,10.556c3.248,8.12,6.5,16.613,10.036,25.5,6.983,17.863,14.534,37.058,22.427,57.146,2.274,5.814,4.531,11.546,6.642,16.954l.146.374-.357.162L185.2,463.821l-.341.146-.162-.325c-18.529-34.72-33.908-63.561-43.44-81.44l.195.114a18.107,18.107,0,0,0-9.354,3.7,15.735,15.735,0,0,0-4.628,5.83,14.26,14.26,0,0,0-.974,2.5,10.315,10.315,0,0,0-.5,1.884C125.7,397.142,125.57,397.662,125.57,397.662Z" transform="translate(24.52 -21.387)" fill="#455a64"/>
      <path id="Path_2640" data-name="Path 2640" d="M189.95,335.141c-.1.146-1.884-1.121-5.083-2.485a35.348,35.348,0,0,0-5.8-1.868,38.488,38.488,0,0,0-7.405-.844,37.576,37.576,0,0,0-7.405.763,32.6,32.6,0,0,0-5.814,1.786c-3.248,1.332-5.018,2.566-5.115,2.42a6.5,6.5,0,0,1,1.218-.942,15.337,15.337,0,0,1,1.527-.942c.617-.325,1.315-.747,2.127-1.088a30.764,30.764,0,0,1,5.895-2,32.575,32.575,0,0,1,15.151.1,30.179,30.179,0,0,1,5.862,2.143,20.813,20.813,0,0,1,2.111,1.121,12.716,12.716,0,0,1,1.526.958A7.15,7.15,0,0,1,189.95,335.141Z" transform="translate(54.475 -18.952)" fill="#455a64"/>
      <g id="Group_185" data-name="Group 185" transform="translate(165.891 360.604)" opacity="0.3">
        <path id="Path_2641" data-name="Path 2641" d="M127.52,360.17s12.293,52.5,25.691,67.2S170.2,445.151,170.2,445.151l.926-3.621Z" transform="translate(-127.52 -360.17)"/>
      </g>
      <path id="Path_2642" data-name="Path 2642" d="M172.15,317.265s1.348-8.12,5.343-12.813a90.111,90.111,0,0,1,11.368-10.133h2.046l5.391-12.1,15.151-.731s-3.248,29.523-10.523,38.5-14.713,8.509-17.863,7.6S172.15,317.265,172.15,317.265Z" transform="translate(66.218 -48.658)" fill="#c17560"/>
      <path id="Path_2643" data-name="Path 2643" d="M160.707,234.926l-11.968,59a5.262,5.262,0,0,0,5.148,6.285h82.269a5.261,5.261,0,0,0,5.115-4.109l13.219-59a5.245,5.245,0,0,0-5.115-6.382H165.839A5.213,5.213,0,0,0,160.707,234.926Z" transform="translate(51.548 -80.335)" fill="#263238"/>
      <path id="Path_2644" data-name="Path 2644" d="M160.839,235.034a2.793,2.793,0,0,1,.179-.812,5.213,5.213,0,0,1,1.315-2.046,5.375,5.375,0,0,1,3.638-1.478h5.359l34.233-.146h43.684a5.7,5.7,0,0,1,5.667,3.979,6.967,6.967,0,0,1-.162,3.751c-.26,1.169-.52,2.355-.8,3.556-.52,2.387-1.072,4.872-1.624,7.243-1.088,4.872-2.209,9.857-3.329,14.924l-7.032,31.407a8.509,8.509,0,0,1-.617,2.062,5.31,5.31,0,0,1-1.332,1.77,5.765,5.765,0,0,1-4.044,1.462H154.944a6.967,6.967,0,0,1-3.248-.5,5.522,5.522,0,0,1-2.436-2.16,5.359,5.359,0,0,1-.828-3.085,26.569,26.569,0,0,1,.52-2.988l2.29-11.108c2.907-14.128,5.278-25.577,6.918-33.518.828-3.93,1.478-6.983,1.932-9.11.227-1.007.39-1.786.52-2.355a6.171,6.171,0,0,1,.211-.8,3.88,3.88,0,0,1-.13.812c-.13.536-.244,1.364-.438,2.371-.406,2.127-1.007,5.2-1.77,9.143-1.624,7.957-3.849,19.487-6.658,33.567-.715,3.54-1.462,7.259-2.225,11.124a23.756,23.756,0,0,0-.5,2.874,4.872,4.872,0,0,0,2.874,4.6,6.138,6.138,0,0,0,2.956.438h81.067a4.872,4.872,0,0,0,3.491-1.25,4.645,4.645,0,0,0,1.121-1.494,9.126,9.126,0,0,0,.552-1.884c2.42-10.75,4.774-21.257,7.048-31.407,1.137-5.067,2.257-10.052,3.345-14.924.552-2.436,1.1-4.872,1.624-7.243.26-1.185.536-2.371.8-3.556a5.976,5.976,0,0,0,.162-3.362,4.872,4.872,0,0,0-4.872-3.573H205.578l-34.233-.13h-5.359a5.148,5.148,0,0,0-3.524,1.348A5.57,5.57,0,0,0,160.839,235.034Z" transform="translate(51.416 -80.443)" fill="#455a64"/>
      <path id="Path_2645" data-name="Path 2645" d="M194.822,250.01s9.922,16.889,10.945,19.13,3.995,5.684,4.19,7.811,2.566,14.291,2.355,18.692a33.029,33.029,0,0,1-2.631,9.841l-13.641-3.394a21.939,21.939,0,0,1-5.083-6.95,15.8,15.8,0,0,0-5.245-7.064c-1.738-1.332-8.591-5.635-9.4-7.194a3.248,3.248,0,0,1,0-3.329s-3.248-1.527-3.7-3.248,0-4.4,3.589-2.761S192.97,282.6,194.3,281.579s-.309-3.508-.309-3.508-14.015-12.764-14.729-15.021,1.332-5.424,4.6-2.663S197.891,274,199.011,274s-.1-3.167-.1-3.167-5.521-11.871-6.5-15.038S192.061,248.37,194.822,250.01Z" transform="translate(66.411 -68.526)" fill="#c17560"/>
      <path id="Path_2646" data-name="Path 2646" d="M254,233.042h-1.575l-4.531.081-16.645.13-54.889.13h-7.941a4.125,4.125,0,0,0-3.248,1.088,3.784,3.784,0,0,0-.942,1.429c-.162.52-.276,1.218-.422,1.8-1.121,4.872-2.16,9.744-3.134,14.242-1.916,9.062-3.638,17.246-5.083,24.148s-2.728,12.407-3.638,16.239c-.455,1.851-.828,3.248-1.088,4.385l-.309,1.137a1.217,1.217,0,0,1-.13.39,1.282,1.282,0,0,1,0-.406,7.091,7.091,0,0,1,.227-1.153l.926-4.433,3.378-16.239c1.4-6.9,3.053-15.1,4.872-24.18.942-4.547,1.965-9.321,3.085-14.258.162-.633.227-1.2.455-1.9a4.482,4.482,0,0,1,1.137-1.754,5,5,0,0,1,3.865-1.332h7.941l54.889.13,16.645.13,4.531.081h1.169a1.413,1.413,0,0,1,.455.114Z" transform="translate(52.653 -79.182)" fill="#455a64"/>
      <path id="Path_2647" data-name="Path 2647" d="M173.37,306.238a4.434,4.434,0,0,1,.422-1.332,17.568,17.568,0,0,1,1.9-3.248,18.789,18.789,0,0,1,10.182-7.048,17.86,17.86,0,0,1,3.719-.568l-.325.195c1.851-3.378,3.248-6.593,4.385-8.769a35.284,35.284,0,0,1,1.819-3.508,16.012,16.012,0,0,1-1.332,3.735c-.991,2.273-2.273,5.424-4.174,9l-.1.162h-.244a18.384,18.384,0,0,0-3.54.552,19.487,19.487,0,0,0-9.922,6.609C174.214,304.435,173.516,306.384,173.37,306.238Z" transform="translate(66.979 -48.364)" fill="#6f4439"/>
      <path id="Path_2648" data-name="Path 2648" d="M190.068,275.99a45.475,45.475,0,0,1-7.811-4.255,44.932,44.932,0,0,1-7.356-4.985,46.606,46.606,0,0,1,7.795,4.271,48.467,48.467,0,0,1,7.373,4.969Z" transform="translate(67.933 -57.855)" fill="#6f4439"/>
      <path id="Path_2649" data-name="Path 2649" d="M188.99,243.1a2.712,2.712,0,1,1-1.624-3.7,2.891,2.891,0,0,1,1.624,3.7Z" transform="translate(73.493 -75.002)" fill="#e0e0e0"/>
      <path id="Path_2650" data-name="Path 2650" d="M112.56,209.372a4.628,4.628,0,0,1-.893-1.624,9.743,9.743,0,0,1-.39-5.1,9.468,9.468,0,0,1,4.238-6.236,10.036,10.036,0,0,1,4.3-1.527,6.5,6.5,0,0,1,2.485.13,2.6,2.6,0,0,1,1.949,1.9,1.916,1.916,0,0,1-.292,1.462,2.875,2.875,0,0,1-1.056.926,4.06,4.06,0,0,1-2.533.357,4.709,4.709,0,0,1-3.248-7.048,5.554,5.554,0,0,1,2.582-2.468,6.074,6.074,0,0,1,5.083.406,3.686,3.686,0,0,1,1.429,1.218,8.168,8.168,0,0,0-1.624-.926,5.83,5.83,0,0,0-4.693-.146,4.872,4.872,0,0,0-2.306,2.225,4.3,4.3,0,0,0-.211,3.556,4.174,4.174,0,0,0,3.053,2.355,3.248,3.248,0,0,0,2.014-.292,1.445,1.445,0,0,0,.909-1.478,1.819,1.819,0,0,0-1.348-1.267,6.5,6.5,0,0,0-2.176-.1,9.386,9.386,0,0,0-3.962,1.38,8.9,8.9,0,0,0-4.076,5.7,10.279,10.279,0,0,0,.114,4.872C112.3,208.755,112.56,209.339,112.56,209.372Z" transform="translate(28.128 -105.886)" fill="#263238"/>
    </g>
  </g>
</svg>
